<svg id="svg" version="1.1" width="100" height="42.03" viewBox="0 0 400 168.1159420289855" xmlns="http://www.w3.org/2000/svg" xmlns:xlink="http://www.w3.org/1999/xlink" ><g id="svgg"><path id="path0" d="" stroke="none" fill="#000000" fill-rule="evenodd"></path><path id="path1" d="M50.375 18.564 C 50.424 18.694,50.345 19.154,50.199 19.586 C 49.967 20.268,49.932 21.639,49.937 29.984 C 49.940 35.271,49.941 39.767,49.940 39.975 C 49.938 40.198,49.833 40.353,49.685 40.353 C 49.463 40.353,49.433 39.080,49.433 29.901 C 49.433 24.152,49.397 19.484,49.353 19.527 C 49.309 19.571,49.267 24.426,49.259 30.316 L 49.245 41.026 26.724 41.026 L 4.203 41.026 4.245 102.102 L 4.288 163.178 4.689 163.235 C 5.021 163.282,5.076 163.232,5.002 162.951 C 4.915 162.620,6.585 161.076,7.030 161.076 C 7.120 161.076,7.239 160.959,7.294 160.816 C 7.370 160.616,7.534 160.582,7.995 160.668 C 8.508 160.765,8.609 160.732,8.685 160.440 C 8.734 160.252,8.916 160.061,9.090 160.016 C 9.306 159.959,9.440 159.721,9.514 159.262 C 9.591 158.778,9.733 158.540,10.023 158.408 C 10.244 158.307,10.425 158.148,10.425 158.053 C 10.425 157.959,10.570 157.881,10.747 157.881 C 10.924 157.881,11.101 157.787,11.139 157.671 C 11.180 157.551,11.491 157.461,11.868 157.461 C 12.504 157.461,12.532 157.437,12.700 156.740 C 12.868 156.044,13.606 155.212,14.068 155.197 C 14.175 155.194,14.289 155.116,14.320 155.024 C 14.351 154.931,14.701 154.843,15.098 154.828 C 15.605 154.808,15.795 154.736,15.737 154.585 C 15.689 154.460,15.807 154.350,16.024 154.319 C 16.301 154.280,16.435 154.094,16.562 153.576 C 16.723 152.912,17.541 151.997,17.973 151.997 C 18.075 151.997,18.159 151.921,18.159 151.828 C 18.159 151.736,18.495 151.660,18.905 151.660 L 19.652 151.660 19.767 150.890 C 19.831 150.467,19.985 150.081,20.111 150.033 C 20.237 149.984,20.620 149.688,20.963 149.373 C 21.307 149.059,21.678 148.802,21.789 148.802 C 21.899 148.802,22.034 148.687,22.088 148.547 C 22.161 148.358,22.356 148.314,22.853 148.376 L 23.520 148.460 23.634 147.694 C 23.718 147.134,23.845 146.890,24.107 146.785 C 24.303 146.707,24.669 146.447,24.919 146.209 C 25.169 145.971,25.444 145.776,25.529 145.776 C 25.614 145.776,25.778 145.662,25.893 145.523 C 26.012 145.380,26.379 145.271,26.744 145.271 C 27.375 145.271,27.388 145.259,27.499 144.520 C 27.598 143.857,27.698 143.718,28.350 143.336 C 28.756 143.098,29.088 142.821,29.088 142.720 C 29.088 142.601,29.325 142.576,29.775 142.648 C 30.364 142.742,30.474 142.711,30.547 142.433 C 30.594 142.254,30.774 142.070,30.948 142.025 C 31.167 141.968,31.299 141.728,31.376 141.246 C 31.470 140.656,31.581 140.505,32.095 140.262 C 32.666 139.992,41.963 139.970,186.745 139.891 C 271.468 139.844,340.831 139.763,340.883 139.711 C 340.936 139.658,340.982 134.758,340.986 128.822 L 340.993 118.030 349.521 118.073 L 358.050 118.117 358.036 118.495 C 358.029 118.703,358.115 118.873,358.227 118.873 C 358.339 118.873,358.470 119.025,358.519 119.210 C 358.586 119.467,358.748 119.546,359.211 119.546 C 359.543 119.546,359.815 119.622,359.815 119.714 C 359.815 119.807,359.939 119.882,360.090 119.882 C 360.739 119.882,362.129 121.275,362.249 122.045 L 362.364 122.779 363.027 122.673 C 363.535 122.592,363.714 122.627,363.789 122.822 C 363.842 122.962,363.977 123.077,364.088 123.077 C 364.384 123.077,365.364 123.929,365.364 124.186 C 365.364 124.814,365.760 125.263,366.315 125.263 C 366.732 125.263,366.877 125.337,366.877 125.549 C 366.877 125.771,366.832 125.790,366.675 125.633 C 366.408 125.366,366.204 125.377,366.204 125.658 C 366.204 125.820,366.388 125.866,366.851 125.820 C 367.291 125.776,367.567 125.838,367.713 126.013 C 367.830 126.155,368.000 126.272,368.089 126.272 C 368.392 126.272,369.231 127.193,369.236 127.532 C 369.242 127.931,369.609 128.457,369.880 128.457 C 369.985 128.457,370.071 128.596,370.071 128.766 C 370.071 128.935,370.187 129.074,370.329 129.074 C 370.507 129.074,370.533 129.020,370.413 128.900 C 370.165 128.651,370.199 128.457,370.492 128.457 C 370.631 128.457,370.744 128.535,370.744 128.630 C 370.744 128.724,370.933 128.874,371.164 128.962 C 371.396 129.050,371.585 129.199,371.585 129.294 C 371.585 129.389,371.679 129.469,371.795 129.472 C 372.267 129.486,373.006 130.310,373.177 131.015 C 373.343 131.697,373.383 131.734,373.906 131.692 C 374.318 131.660,374.660 131.798,375.250 132.237 C 376.955 133.506,377.111 133.668,377.097 134.158 C 377.076 134.882,377.243 135.028,377.959 134.913 C 378.454 134.834,378.620 134.872,378.701 135.081 C 378.757 135.230,378.901 135.352,379.020 135.354 C 379.341 135.357,381.029 136.957,380.992 137.223 C 380.873 138.087,380.981 138.242,381.631 138.142 C 382.583 137.995,383.861 138.914,384.105 139.922 C 384.290 140.682,385.023 140.894,385.655 140.369 C 385.860 140.199,385.889 20.360,385.684 18.789 L 385.624 18.327 217.954 18.327 C 73.914 18.327,50.297 18.360,50.375 18.564 M384.421 20.660 C 384.791 20.966,384.858 137.028,384.489 137.333 C 384.150 137.613,383.459 137.383,382.786 136.766 C 382.441 136.450,382.114 136.192,382.060 136.192 C 381.965 136.192,380.522 134.994,379.690 134.225 C 379.470 134.023,378.540 133.272,377.623 132.557 C 376.706 131.843,375.956 131.195,375.956 131.119 C 375.956 131.042,375.860 130.979,375.741 130.979 C 375.623 130.979,375.407 130.847,375.261 130.685 C 375.116 130.523,374.401 129.899,373.673 129.298 C 372.945 128.697,372.227 128.092,372.076 127.953 C 371.925 127.814,371.554 127.512,371.252 127.280 C 370.220 126.491,369.147 125.553,369.012 125.324 C 368.938 125.198,368.772 125.095,368.642 125.095 C 368.513 125.095,368.346 124.997,368.272 124.877 C 368.198 124.757,367.684 124.304,367.129 123.871 C 365.861 122.880,365.105 122.257,364.580 121.774 C 364.354 121.566,364.125 121.396,364.071 121.396 C 364.017 121.396,363.809 121.225,363.608 121.017 C 363.408 120.809,363.021 120.462,362.748 120.247 C 362.476 120.031,361.856 119.540,361.370 119.156 C 360.885 118.772,360.488 118.400,360.488 118.329 C 360.488 118.259,360.407 118.201,360.308 118.201 C 360.209 118.201,359.769 117.898,359.331 117.529 L 358.533 116.857 205.146 116.814 C 53.529 116.772,51.757 116.768,51.521 116.445 C 51.186 115.988,51.158 20.992,51.492 20.718 C 51.608 20.623,51.892 20.510,52.123 20.468 C 53.334 20.244,384.152 20.436,384.421 20.660 M142.329 41.208 C 137.847 41.540,133.484 42.699,130.979 44.224 C 130.841 44.308,130.273 44.614,129.718 44.903 C 129.164 45.193,128.590 45.536,128.444 45.665 C 128.298 45.795,128.094 45.902,127.990 45.902 C 127.886 45.902,127.741 45.996,127.667 46.112 C 127.593 46.227,127.041 46.694,126.440 47.148 C 124.607 48.533,121.261 52.219,120.625 53.552 C 120.493 53.829,120.205 54.359,119.985 54.729 C 119.264 55.943,118.458 57.702,117.868 59.353 C 117.622 60.040,117.098 62.196,116.825 63.640 C 116.581 64.935,116.583 70.898,116.828 72.215 C 117.289 74.692,117.773 76.414,118.392 77.782 C 118.565 78.162,118.705 78.533,118.705 78.606 C 118.705 78.766,119.428 80.190,119.985 81.127 C 120.205 81.496,120.492 82.026,120.625 82.303 C 120.757 82.581,121.344 83.388,121.929 84.096 C 122.514 84.805,123.182 85.623,123.413 85.915 C 124.147 86.841,124.669 87.344,125.779 88.192 C 126.374 88.647,126.952 89.097,127.064 89.192 C 127.177 89.287,127.401 89.478,127.563 89.616 C 128.115 90.086,128.926 90.592,129.323 90.714 C 129.540 90.781,129.795 90.897,129.890 90.971 C 130.206 91.222,133.046 92.644,133.233 92.645 C 133.334 92.646,133.607 92.744,133.838 92.864 C 137.247 94.631,146.003 95.214,151.324 94.028 C 154.000 93.431,156.755 92.405,157.862 91.593 C 158.083 91.431,158.395 91.299,158.556 91.299 C 158.717 91.299,158.937 91.193,159.045 91.063 C 159.152 90.934,159.426 90.781,159.653 90.724 C 160.182 90.591,162.032 89.325,162.151 89.014 C 162.202 88.884,162.355 88.777,162.492 88.777 C 162.629 88.777,162.801 88.682,162.875 88.566 C 162.949 88.449,163.285 88.149,163.622 87.899 C 165.451 86.536,168.042 83.218,169.555 80.299 C 169.918 79.598,170.268 79.025,170.332 79.025 C 170.397 79.025,170.497 78.779,170.555 78.478 C 170.614 78.178,170.769 77.705,170.902 77.427 C 171.266 76.665,171.675 75.345,171.850 74.367 C 171.937 73.886,172.092 73.281,172.196 73.022 C 172.459 72.370,172.584 65.625,172.362 64.145 C 171.936 61.312,171.441 59.411,170.802 58.153 C 170.631 57.817,170.492 57.450,170.492 57.339 C 170.492 57.227,170.340 56.943,170.156 56.708 C 169.971 56.473,169.819 56.140,169.819 55.967 C 169.819 55.795,169.753 55.654,169.672 55.654 C 169.590 55.654,169.424 55.408,169.303 55.107 C 169.181 54.807,169.034 54.523,168.975 54.477 C 168.916 54.430,168.756 54.166,168.618 53.888 C 168.225 53.096,167.902 52.565,167.699 52.378 C 167.597 52.284,166.992 51.564,166.355 50.778 C 165.200 49.353,163.797 47.919,163.556 47.919 C 163.487 47.919,163.296 47.785,163.131 47.621 C 162.363 46.852,160.381 45.420,159.395 44.920 C 158.794 44.615,158.188 44.301,158.050 44.222 C 156.281 43.217,153.815 42.312,152.097 42.037 C 151.491 41.940,150.824 41.798,150.614 41.721 C 149.537 41.326,144.746 41.030,142.329 41.208 M209.237 41.375 C 207.566 41.520,206.123 41.687,206.030 41.745 C 205.937 41.802,205.336 41.966,204.696 42.109 C 202.207 42.662,201.444 42.928,199.454 43.935 C 198.321 44.508,197.186 45.082,196.932 45.210 C 195.630 45.867,191.798 49.404,190.674 50.988 C 190.362 51.427,190.053 51.786,189.986 51.786 C 189.920 51.786,189.742 52.032,189.590 52.333 C 189.438 52.633,189.248 52.993,189.168 53.132 C 188.938 53.527,187.690 56.169,187.380 56.915 C 184.485 63.886,184.925 73.842,188.446 81.042 C 189.483 83.163,189.904 83.817,191.477 85.750 C 192.534 87.050,194.931 89.304,196.114 90.112 C 196.309 90.246,196.508 90.410,196.555 90.477 C 196.602 90.545,196.849 90.652,197.103 90.716 C 197.357 90.779,197.601 90.889,197.644 90.960 C 197.688 91.030,198.160 91.292,198.694 91.540 C 199.227 91.789,199.777 92.064,199.916 92.151 C 200.498 92.518,202.213 93.160,203.447 93.474 C 203.863 93.579,204.922 93.859,205.801 94.095 C 207.642 94.591,216.061 94.797,216.836 94.366 C 217.034 94.256,217.752 94.081,218.434 93.978 C 219.679 93.788,221.236 93.339,222.220 92.887 C 222.511 92.754,222.869 92.644,223.014 92.644 C 223.160 92.644,223.716 92.407,224.250 92.118 C 224.784 91.829,225.723 91.337,226.336 91.024 C 226.950 90.711,227.546 90.342,227.660 90.204 C 227.774 90.067,227.955 89.954,228.062 89.954 C 228.169 89.954,228.375 89.821,228.520 89.660 C 228.665 89.498,228.965 89.254,229.188 89.118 C 229.852 88.712,232.791 85.657,233.351 84.790 C 233.637 84.347,233.949 83.893,234.043 83.782 C 234.138 83.670,234.216 83.512,234.216 83.430 C 234.216 83.347,234.367 83.143,234.552 82.976 C 234.737 82.809,234.889 82.580,234.889 82.468 C 234.889 82.356,235.030 82.084,235.203 81.864 C 235.376 81.643,235.570 81.222,235.634 80.928 C 235.698 80.634,235.860 80.303,235.992 80.193 C 236.125 80.083,236.234 79.885,236.234 79.754 C 236.234 79.623,236.385 79.219,236.570 78.857 C 236.755 78.494,236.907 78.024,236.907 77.812 C 236.908 77.601,237.027 77.201,237.172 76.923 C 237.317 76.646,237.475 76.040,237.522 75.578 C 237.570 75.116,237.720 74.383,237.856 73.951 C 238.038 73.369,238.111 72.143,238.135 69.243 L 238.167 65.322 225.696 65.278 C 214.470 65.240,213.198 65.262,212.957 65.503 C 212.723 65.737,212.695 66.329,212.734 70.170 L 212.778 74.569 217.796 74.653 L 222.813 74.737 223.134 75.134 C 223.598 75.707,223.414 76.962,222.600 78.773 C 222.021 80.061,220.332 81.802,219.095 82.384 C 218.673 82.582,218.201 82.813,218.046 82.895 C 215.513 84.254,209.391 84.115,206.215 82.626 C 203.659 81.428,200.484 78.110,200.137 76.275 C 200.082 75.984,199.976 75.668,199.903 75.573 C 198.624 73.925,198.236 66.114,199.270 62.820 C 199.440 62.276,199.580 61.706,199.580 61.554 C 199.580 61.402,199.679 61.128,199.801 60.945 C 199.922 60.763,200.115 60.292,200.228 59.899 C 200.341 59.506,200.506 59.185,200.595 59.185 C 200.684 59.185,200.757 59.052,200.758 58.890 C 200.762 58.295,202.925 55.717,204.372 54.583 C 205.503 53.697,207.516 52.627,208.053 52.627 C 208.211 52.627,208.582 52.496,208.878 52.337 C 210.255 51.593,216.143 52.090,217.234 53.042 C 217.373 53.163,217.732 53.315,218.033 53.378 C 218.333 53.442,218.579 53.559,218.579 53.638 C 218.579 53.717,218.745 53.834,218.949 53.899 C 219.846 54.183,221.953 56.574,222.788 58.254 C 223.350 59.384,223.753 59.719,224.206 59.434 C 224.394 59.315,224.789 59.167,225.083 59.106 C 225.377 59.045,225.708 58.886,225.818 58.753 C 225.928 58.621,226.133 58.512,226.274 58.512 C 226.414 58.512,226.859 58.361,227.262 58.176 C 227.665 57.991,228.325 57.688,228.728 57.503 C 229.131 57.318,229.566 57.167,229.695 57.167 C 229.823 57.168,230.231 57.020,230.601 56.839 C 230.971 56.659,231.728 56.339,232.282 56.129 C 232.837 55.919,233.443 55.660,233.628 55.552 C 233.813 55.445,234.170 55.310,234.421 55.251 C 235.092 55.096,235.293 54.611,234.968 53.934 C 234.449 52.857,233.477 51.292,232.902 50.608 C 232.709 50.378,232.177 49.735,231.722 49.180 C 230.618 47.836,229.727 47.030,227.904 45.727 C 226.194 44.504,225.834 44.265,225.473 44.110 C 225.334 44.050,224.691 43.759,224.044 43.463 C 219.938 41.584,214.931 40.878,209.237 41.375 M276.839 41.211 C 275.914 41.284,274.704 41.418,274.149 41.508 C 271.913 41.871,270.099 42.244,269.807 42.400 C 269.637 42.491,269.137 42.672,268.695 42.804 C 267.842 43.057,263.403 45.271,262.954 45.667 C 262.808 45.796,262.604 45.902,262.500 45.902 C 262.397 45.902,262.251 45.996,262.177 46.112 C 262.103 46.227,261.702 46.585,261.286 46.906 C 260.870 47.227,260.431 47.568,260.310 47.663 C 258.402 49.166,255.668 52.495,254.577 54.645 C 254.178 55.431,253.757 56.187,253.641 56.326 C 253.526 56.465,253.389 56.730,253.337 56.915 C 253.285 57.100,253.021 57.781,252.752 58.428 C 250.504 63.818,250.504 72.037,252.752 77.427 C 253.021 78.075,253.285 78.756,253.337 78.941 C 253.389 79.126,253.530 79.392,253.650 79.532 C 253.770 79.672,254.104 80.277,254.392 80.877 C 255.680 83.563,258.521 86.869,261.454 89.096 C 261.871 89.412,262.249 89.715,262.295 89.770 C 262.501 90.014,263.432 90.591,263.812 90.709 C 264.255 90.847,266.527 92.032,267.082 92.415 C 267.265 92.541,267.530 92.647,267.671 92.650 C 267.812 92.653,268.230 92.802,268.600 92.980 C 268.970 93.159,269.424 93.308,269.609 93.312 C 269.794 93.316,270.153 93.427,270.407 93.559 C 270.661 93.692,271.228 93.849,271.668 93.908 C 272.108 93.967,272.884 94.140,273.392 94.291 C 274.555 94.638,283.578 94.694,284.367 94.360 C 284.624 94.251,285.328 94.083,285.932 93.987 C 286.936 93.827,288.379 93.398,290.122 92.743 C 290.843 92.472,293.330 91.226,293.636 90.983 C 293.738 90.902,294.009 90.778,294.238 90.707 C 294.733 90.555,295.146 90.272,297.265 88.630 C 298.905 87.360,299.155 87.120,300.462 85.570 C 300.879 85.076,301.389 84.509,301.597 84.309 C 301.805 84.110,301.976 83.860,301.976 83.755 C 301.976 83.650,302.049 83.565,302.139 83.565 C 302.230 83.565,302.429 83.319,302.583 83.018 C 302.737 82.718,302.911 82.434,302.969 82.388 C 303.028 82.341,303.168 82.114,303.281 81.883 C 303.394 81.652,303.550 81.349,303.629 81.211 C 304.025 80.507,305.039 78.470,305.429 77.596 C 305.552 77.318,305.705 76.826,305.767 76.503 C 305.830 76.179,305.985 75.725,306.111 75.494 C 307.337 73.249,307.303 61.734,306.067 60.165 C 305.970 60.042,305.841 59.676,305.782 59.353 C 305.722 59.029,305.568 58.537,305.439 58.260 C 304.921 57.146,303.984 55.275,303.629 54.645 C 303.550 54.506,303.394 54.203,303.281 53.972 C 302.979 53.353,301.975 51.921,301.571 51.533 C 301.377 51.347,300.954 50.861,300.631 50.452 C 299.242 48.701,295.790 45.862,293.905 44.922 C 293.304 44.622,292.699 44.309,292.560 44.225 C 291.969 43.870,289.720 42.872,288.945 42.622 C 285.417 41.482,280.565 40.917,276.839 41.211 M336.263 41.356 C 335.656 41.433,334.802 41.618,334.366 41.765 C 333.930 41.913,333.365 42.034,333.109 42.034 C 332.080 42.034,328.050 44.352,326.657 45.744 C 322.874 49.527,320.864 57.538,322.569 62.043 C 322.691 62.367,322.914 62.978,323.063 63.401 C 323.639 65.031,325.590 67.446,327.196 68.516 C 327.612 68.793,327.991 69.064,328.037 69.118 C 328.159 69.261,330.005 70.113,330.192 70.113 C 330.279 70.113,330.437 70.219,330.544 70.348 C 330.652 70.477,331.020 70.635,331.364 70.700 C 331.707 70.764,332.177 70.921,332.409 71.049 C 332.640 71.176,333.147 71.361,333.536 71.458 C 333.926 71.556,334.289 71.709,334.345 71.799 C 334.401 71.889,334.615 71.963,334.821 71.963 C 335.027 71.963,335.493 72.114,335.855 72.299 C 336.218 72.484,336.633 72.636,336.776 72.636 C 336.920 72.636,337.320 72.787,337.665 72.972 C 338.010 73.157,338.413 73.308,338.561 73.308 C 338.709 73.308,339.031 73.414,339.276 73.544 C 339.522 73.674,340.141 73.981,340.652 74.226 C 341.530 74.646,342.833 75.696,342.833 75.983 C 342.833 76.056,342.981 76.285,343.162 76.494 C 343.830 77.265,343.847 80.162,343.187 81.054 C 342.992 81.318,342.831 81.593,342.828 81.666 C 342.819 81.926,341.893 82.698,340.900 83.274 C 338.699 84.551,334.518 84.375,331.063 82.861 C 330.155 82.463,328.942 81.812,328.561 81.519 C 328.340 81.349,328.091 81.211,328.007 81.211 C 327.923 81.211,327.688 81.054,327.484 80.862 C 325.777 79.260,325.323 79.209,324.622 80.538 C 324.403 80.954,323.860 81.976,323.416 82.808 C 322.972 83.640,322.330 84.851,321.989 85.498 C 321.648 86.145,321.129 87.112,320.836 87.646 C 320.046 89.083,320.123 89.415,321.396 90.058 C 321.673 90.198,322.203 90.492,322.573 90.710 C 323.476 91.244,324.981 91.957,325.453 92.076 C 325.665 92.129,325.925 92.279,326.033 92.408 C 326.141 92.538,326.392 92.644,326.591 92.644 C 326.790 92.644,327.109 92.753,327.300 92.886 C 327.653 93.134,328.902 93.486,330.944 93.913 C 331.571 94.045,332.252 94.244,332.457 94.356 C 332.996 94.651,342.188 94.651,342.544 94.356 C 342.683 94.241,343.354 94.041,344.034 93.913 C 346.730 93.406,351.093 91.153,352.417 89.585 C 352.648 89.311,353.112 88.794,353.447 88.436 C 353.782 88.078,354.107 87.686,354.169 87.566 C 354.232 87.446,354.466 87.045,354.690 86.675 C 354.914 86.305,355.221 85.719,355.372 85.372 C 355.524 85.025,355.711 84.741,355.788 84.741 C 355.864 84.741,355.980 84.382,356.043 83.943 C 356.107 83.504,356.258 82.950,356.378 82.713 C 356.498 82.476,356.643 81.795,356.699 81.200 C 356.756 80.605,356.888 79.533,356.993 78.817 C 357.207 77.364,356.771 73.207,356.337 72.556 C 356.216 72.374,356.116 72.116,356.116 71.984 C 356.116 71.761,355.295 69.965,355.107 69.777 C 355.061 69.731,354.763 69.321,354.446 68.866 C 353.038 66.849,349.084 64.128,346.236 63.216 C 345.983 63.135,345.246 62.870,344.599 62.626 C 343.951 62.383,343.119 62.112,342.749 62.023 C 342.153 61.881,340.858 61.424,339.891 61.015 C 339.706 60.937,339.336 60.794,339.070 60.697 C 338.324 60.426,336.279 59.002,336.073 58.609 C 335.972 58.417,335.810 58.208,335.713 58.145 C 335.616 58.082,335.495 57.666,335.444 57.221 C 335.122 54.416,335.925 53.194,339.033 51.759 C 339.648 51.476,343.510 51.445,343.858 51.721 C 343.988 51.824,344.384 51.953,344.738 52.007 C 345.328 52.098,346.587 52.592,347.205 52.976 C 347.343 53.062,347.638 53.210,347.859 53.305 C 348.081 53.400,348.546 53.703,348.892 53.977 C 349.715 54.629,350.171 54.631,350.313 53.984 C 350.372 53.713,350.530 53.401,350.662 53.291 C 350.795 53.181,350.904 52.958,350.904 52.795 C 350.904 52.633,351.012 52.410,351.145 52.300 C 351.278 52.190,351.435 51.879,351.494 51.609 C 351.554 51.339,351.659 51.082,351.729 51.039 C 351.845 50.968,353.160 48.403,353.586 47.415 C 353.686 47.184,353.956 46.661,354.185 46.254 C 354.796 45.169,354.743 44.997,353.636 44.485 C 353.104 44.239,352.367 43.894,351.997 43.719 C 351.075 43.283,347.200 42.034,346.766 42.034 C 346.573 42.034,345.704 41.879,344.834 41.689 C 343.053 41.300,338.186 41.111,336.263 41.356 M77.806 42.719 C 77.373 42.973,77.345 93.048,77.778 93.214 C 78.071 93.327,105.997 93.359,106.109 93.247 C 106.148 93.208,106.158 90.825,106.132 87.950 L 106.086 82.724 98.472 82.724 C 92.163 82.724,90.803 82.683,90.532 82.485 C 90.213 82.252,90.204 81.801,90.122 62.435 L 90.038 42.623 84.069 42.585 C 80.221 42.560,77.995 42.608,77.806 42.719 M147.998 53.703 C 148.342 53.851,148.784 53.972,148.981 53.972 C 150.410 53.972,154.474 56.721,156.438 59.016 C 156.689 59.310,157.856 61.355,158.261 62.211 C 161.177 68.379,158.302 77.147,152.292 80.414 C 151.822 80.670,151.355 80.938,151.254 81.010 C 147.822 83.481,139.233 82.795,135.687 79.767 C 133.723 78.089,132.361 76.545,131.616 75.153 C 131.396 74.739,131.094 74.212,130.945 73.981 C 130.797 73.749,130.624 73.309,130.560 73.003 C 130.496 72.696,130.337 72.242,130.208 71.994 C 130.079 71.746,129.972 71.278,129.970 70.954 C 129.969 70.631,129.886 69.874,129.785 69.273 C 129.576 68.029,129.854 64.652,130.231 63.852 C 130.350 63.599,130.500 63.145,130.565 62.843 C 130.730 62.067,132.309 59.442,133.275 58.334 C 134.005 57.498,134.427 57.117,135.728 56.119 C 135.937 55.959,136.183 55.768,136.276 55.696 C 136.463 55.548,138.295 54.649,139.244 54.238 C 139.581 54.092,139.986 53.972,140.143 53.972 C 140.300 53.972,140.667 53.862,140.958 53.727 C 142.028 53.233,146.869 53.216,147.998 53.703 M281.463 53.467 C 283.108 53.787,285.323 54.516,285.834 54.905 C 285.973 55.011,286.427 55.259,286.843 55.456 C 287.259 55.654,287.931 56.119,288.336 56.491 C 288.740 56.863,289.123 57.167,289.186 57.167 C 289.248 57.167,289.598 57.520,289.963 57.951 C 290.328 58.383,290.769 58.870,290.943 59.035 C 291.260 59.336,291.528 59.748,291.913 60.530 C 292.027 60.761,292.204 61.063,292.306 61.202 C 294.320 63.939,294.300 72.200,292.274 74.666 C 292.154 74.812,292.054 75.002,292.052 75.087 C 292.045 75.443,290.707 77.172,289.598 78.259 C 288.184 79.643,287.405 80.201,285.834 80.950 C 285.326 81.193,284.791 81.456,284.647 81.535 C 283.020 82.423,277.822 82.898,276.046 82.322 C 275.650 82.193,275.099 82.039,274.821 81.978 C 271.942 81.348,268.208 78.519,266.373 75.578 C 265.916 74.846,265.153 73.176,265.153 72.908 C 265.153 72.751,265.047 72.456,264.918 72.251 C 264.129 71.002,264.126 65.268,264.915 63.656 C 265.046 63.388,265.153 63.063,265.153 62.935 C 265.153 62.723,265.741 61.449,266.468 60.084 C 266.722 59.609,268.174 57.827,268.600 57.468 C 269.955 56.327,271.385 55.310,271.753 55.227 C 272.007 55.170,272.215 55.066,272.215 54.998 C 272.215 54.826,274.327 53.972,274.752 53.972 C 274.941 53.972,275.261 53.882,275.463 53.771 C 276.252 53.340,279.866 53.156,281.463 53.467 M359.184 119.924 C 359.223 120.040,359.397 120.162,359.571 120.196 C 359.846 120.249,359.858 120.221,359.663 119.986 C 359.396 119.664,359.085 119.624,359.184 119.924 " stroke="none" fill="#282828" fill-rule="evenodd"></path><path id="path2" d="M49.495 18.537 C 49.215 18.938,49.407 40.353,49.691 40.353 C 49.833 40.353,49.938 40.194,49.940 39.975 C 49.941 39.767,49.940 35.271,49.937 29.984 C 49.932 21.639,49.967 20.268,50.199 19.586 C 50.559 18.525,50.042 17.754,49.495 18.537 M385.597 18.590 C 385.541 18.735,385.582 19.041,385.686 19.270 C 385.970 19.892,385.958 140.078,385.675 140.361 C 385.564 140.472,385.331 140.563,385.159 140.563 C 384.296 140.563,384.928 141.319,385.834 141.371 L 386.717 141.422 386.717 79.874 L 386.717 18.327 386.207 18.327 C 385.900 18.327,385.658 18.431,385.597 18.590 M52.123 20.468 C 51.892 20.510,51.608 20.623,51.492 20.718 C 51.158 20.992,51.186 115.988,51.521 116.445 C 51.757 116.768,53.529 116.772,205.146 116.814 L 358.533 116.857 359.331 117.529 C 359.769 117.898,360.209 118.201,360.308 118.201 C 360.407 118.201,360.488 118.259,360.488 118.329 C 360.488 118.400,360.885 118.772,361.370 119.156 C 361.856 119.540,362.476 120.031,362.748 120.247 C 363.021 120.462,363.408 120.809,363.608 121.017 C 363.809 121.225,364.017 121.396,364.071 121.396 C 364.125 121.396,364.354 121.566,364.580 121.774 C 365.105 122.257,365.861 122.880,367.129 123.871 C 367.684 124.304,368.198 124.757,368.272 124.877 C 368.346 124.997,368.513 125.095,368.642 125.095 C 368.772 125.095,368.938 125.198,369.012 125.324 C 369.147 125.553,370.220 126.491,371.252 127.280 C 371.554 127.512,371.925 127.814,372.076 127.953 C 372.227 128.092,372.945 128.697,373.673 129.298 C 374.401 129.899,375.116 130.523,375.261 130.685 C 375.407 130.847,375.623 130.979,375.741 130.979 C 375.860 130.979,375.956 131.042,375.956 131.119 C 375.956 131.195,376.706 131.843,377.623 132.557 C 378.540 133.272,379.470 134.023,379.690 134.225 C 380.522 134.994,381.965 136.192,382.060 136.192 C 382.114 136.192,382.441 136.450,382.786 136.766 C 383.459 137.383,384.150 137.613,384.489 137.333 C 384.858 137.028,384.791 20.966,384.421 20.660 C 384.152 20.436,53.334 20.244,52.123 20.468 M384.121 20.920 C 384.454 21.163,384.757 129.501,384.440 134.966 C 384.282 137.691,384.221 137.680,380.160 134.205 C 379.466 133.612,378.709 132.965,378.478 132.768 C 378.247 132.570,377.537 132.002,376.900 131.505 C 375.710 130.576,370.950 126.636,369.903 125.712 C 369.580 125.427,368.142 124.251,366.709 123.099 C 365.275 121.947,363.913 120.834,363.682 120.627 C 362.671 119.719,359.168 116.881,358.846 116.709 C 358.584 116.569,318.660 116.520,205.429 116.520 C 67.167 116.520,52.330 116.494,51.992 116.258 L 51.618 115.996 51.618 68.515 C 51.618 23.472,51.633 21.025,51.913 20.863 C 52.427 20.563,383.711 20.620,384.121 20.920 M4.316 40.465 C 3.755 41.026,3.737 41.026,26.718 41.026 C 49.150 41.026,49.233 41.024,49.145 40.689 C 49.056 40.350,4.653 40.128,4.316 40.465 M141.824 40.852 C 134.556 41.418,127.605 44.685,123.329 49.547 C 120.827 52.392,120.339 53.104,118.775 56.192 C 115.903 61.865,115.353 69.441,117.336 75.998 C 123.197 95.377,149.141 101.596,164.785 87.373 C 167.275 85.109,170.521 79.923,171.660 76.390 C 173.633 70.271,173.094 61.445,170.447 56.501 C 170.074 55.804,169.496 54.717,169.163 54.086 C 164.594 45.426,153.302 39.960,141.824 40.852 M210.929 40.801 C 208.734 40.955,205.759 41.389,204.801 41.695 C 204.217 41.882,203.576 42.034,203.377 42.034 C 200.934 42.034,194.215 46.241,191.426 49.517 C 190.717 50.349,189.981 51.213,189.790 51.438 C 189.243 52.080,187.032 56.622,186.634 57.923 C 186.436 58.571,186.165 59.456,186.032 59.892 C 184.759 64.058,184.760 71.686,186.035 75.792 C 186.171 76.229,186.470 77.192,186.700 77.932 C 187.717 81.208,189.962 84.845,192.608 87.505 C 194.777 89.686,195.995 90.573,198.727 91.963 C 202.326 93.794,204.851 94.494,209.332 94.903 C 224.951 96.328,237.128 86.654,238.419 71.795 C 238.814 67.249,238.835 65.603,238.502 65.236 C 238.047 64.733,213.090 64.707,212.636 65.209 C 212.191 65.700,212.218 74.474,212.666 74.879 C 212.937 75.125,213.542 75.158,217.760 75.158 C 223.056 75.158,222.951 75.136,222.950 76.242 C 222.944 81.528,214.913 84.998,207.753 82.807 C 200.119 80.472,196.730 70.218,200.370 60.469 C 202.753 54.086,211.154 50.311,216.717 53.123 C 217.048 53.290,217.696 53.606,218.158 53.826 C 219.513 54.469,221.567 56.653,222.458 58.398 C 223.276 59.997,223.685 60.212,224.774 59.611 C 225.020 59.476,225.977 59.057,226.902 58.682 C 227.827 58.306,228.907 57.849,229.303 57.667 C 229.698 57.484,230.095 57.335,230.184 57.335 C 230.334 57.335,234.330 55.690,235.175 55.280 C 236.950 54.420,231.170 47.092,226.424 44.185 C 225.865 43.842,222.923 42.537,222.194 42.308 C 220.592 41.804,219.669 41.556,219.000 41.447 C 218.630 41.387,217.760 41.235,217.066 41.110 C 215.744 40.871,212.363 40.701,210.929 40.801 M276.251 40.859 C 269.338 41.464,264.668 43.486,258.962 48.343 C 258.747 48.526,258.029 49.319,257.367 50.105 C 256.704 50.891,255.972 51.748,255.740 52.009 C 255.324 52.476,254.163 54.555,252.973 56.961 C 250.102 62.769,249.895 71.214,252.463 77.764 C 252.681 78.319,253.059 79.151,253.305 79.613 C 253.550 80.076,253.910 80.757,254.104 81.127 C 255.736 84.228,258.291 87.117,261.875 89.912 C 263.028 90.812,267.653 93.074,269.667 93.723 C 279.778 96.982,292.665 94.158,299.540 87.177 C 301.403 85.285,303.105 82.982,304.188 80.888 C 304.639 80.017,305.072 79.223,305.151 79.123 C 305.374 78.839,306.362 76.017,306.597 74.989 C 306.714 74.481,306.891 73.762,306.992 73.392 C 307.580 71.226,307.539 64.809,306.920 62.127 C 305.787 57.223,303.685 53.264,300.133 49.348 C 294.731 43.393,285.362 40.063,276.251 40.859 M337.201 40.864 C 336.368 40.936,334.968 41.189,334.090 41.425 C 333.211 41.662,332.303 41.904,332.072 41.963 C 329.546 42.610,325.369 46.037,324.058 48.538 C 322.349 51.799,321.648 54.471,321.648 57.725 C 321.648 58.964,322.198 62.483,322.476 63.017 C 322.558 63.175,322.878 63.827,323.187 64.466 C 324.545 67.273,327.706 69.740,331.904 71.269 C 332.413 71.454,334.210 72.102,335.898 72.708 C 342.066 74.922,343.346 75.975,343.360 78.848 C 343.388 84.706,333.521 85.432,327.039 80.048 C 325.447 78.725,325.135 78.748,324.367 80.245 C 324.070 80.822,323.495 81.900,323.087 82.640 C 322.680 83.380,322.159 84.363,321.928 84.826 C 321.698 85.288,321.253 86.120,320.940 86.675 C 319.464 89.291,319.489 89.404,321.827 90.717 C 331.720 96.269,343.162 96.540,350.709 91.401 C 351.441 90.903,352.371 90.129,352.775 89.682 C 353.179 89.235,353.685 88.679,353.899 88.445 C 354.113 88.211,354.590 87.491,354.959 86.843 C 355.328 86.196,355.702 85.553,355.790 85.414 C 356.008 85.071,356.029 85.014,356.502 83.480 C 357.710 79.566,357.687 75.107,356.441 71.876 C 356.262 71.412,356.116 70.975,356.116 70.905 C 356.116 70.541,354.579 68.371,353.610 67.367 C 351.383 65.058,348.028 63.282,342.749 61.617 C 341.917 61.355,341.009 61.047,340.731 60.933 C 340.454 60.819,339.820 60.562,339.323 60.362 C 336.180 59.095,334.938 56.989,336.002 54.729 C 337.733 51.054,343.318 50.801,348.497 54.164 C 350.130 55.223,349.952 55.397,352.623 50.122 C 355.162 45.108,355.222 44.899,354.266 44.390 C 349.516 41.860,342.482 40.406,337.201 40.864 M148.466 41.392 C 149.437 41.496,150.403 41.644,150.614 41.721 C 150.824 41.798,151.491 41.940,152.097 42.037 C 153.815 42.312,156.281 43.217,158.050 44.222 C 158.188 44.301,158.794 44.615,159.395 44.920 C 160.381 45.420,162.363 46.852,163.131 47.621 C 163.296 47.785,163.487 47.919,163.556 47.919 C 163.797 47.919,165.200 49.353,166.355 50.778 C 166.992 51.564,167.597 52.284,167.699 52.378 C 167.902 52.565,168.225 53.096,168.618 53.888 C 168.756 54.166,168.916 54.430,168.975 54.477 C 169.034 54.523,169.181 54.807,169.303 55.107 C 169.424 55.408,169.590 55.654,169.672 55.654 C 169.753 55.654,169.819 55.795,169.819 55.967 C 169.819 56.140,169.971 56.473,170.156 56.708 C 170.340 56.943,170.492 57.227,170.492 57.339 C 170.492 57.450,170.631 57.817,170.802 58.153 C 171.441 59.411,171.936 61.312,172.362 64.145 C 172.584 65.625,172.459 72.370,172.196 73.022 C 172.092 73.281,171.937 73.886,171.850 74.367 C 171.675 75.345,171.266 76.665,170.902 77.427 C 170.769 77.705,170.614 78.178,170.555 78.478 C 170.497 78.779,170.397 79.025,170.332 79.025 C 170.268 79.025,169.918 79.598,169.555 80.299 C 168.042 83.218,165.451 86.536,163.622 87.899 C 163.285 88.149,162.949 88.449,162.875 88.566 C 162.801 88.682,162.629 88.777,162.492 88.777 C 162.355 88.777,162.202 88.884,162.151 89.014 C 162.032 89.325,160.182 90.591,159.653 90.724 C 159.426 90.781,159.152 90.934,159.045 91.063 C 158.937 91.193,158.717 91.299,158.556 91.299 C 158.395 91.299,158.083 91.431,157.862 91.593 C 156.755 92.405,154.000 93.431,151.324 94.028 C 146.003 95.214,137.247 94.631,133.838 92.864 C 133.607 92.744,133.334 92.646,133.233 92.645 C 133.046 92.644,130.206 91.222,129.890 90.971 C 129.795 90.897,129.540 90.781,129.323 90.714 C 128.926 90.592,128.115 90.086,127.563 89.616 C 127.401 89.478,127.177 89.287,127.064 89.192 C 126.952 89.097,126.374 88.647,125.779 88.192 C 124.669 87.344,124.147 86.841,123.413 85.915 C 123.182 85.623,122.514 84.805,121.929 84.096 C 121.344 83.388,120.757 82.581,120.625 82.303 C 120.492 82.026,120.205 81.496,119.985 81.127 C 119.428 80.190,118.705 78.766,118.705 78.606 C 118.705 78.533,118.565 78.162,118.392 77.782 C 117.773 76.414,117.289 74.692,116.828 72.215 C 116.583 70.898,116.581 64.935,116.825 63.640 C 117.098 62.196,117.622 60.040,117.868 59.353 C 118.458 57.702,119.264 55.943,119.985 54.729 C 120.205 54.359,120.493 53.829,120.625 53.552 C 121.261 52.219,124.607 48.533,126.440 47.148 C 127.041 46.694,127.593 46.227,127.667 46.112 C 127.741 45.996,127.886 45.902,127.990 45.902 C 128.094 45.902,128.298 45.795,128.444 45.665 C 128.590 45.536,129.164 45.193,129.718 44.903 C 130.273 44.614,130.841 44.308,130.979 44.224 C 134.961 41.800,141.855 40.683,148.466 41.392 M218.177 41.699 C 220.470 42.123,222.355 42.690,224.044 43.463 C 224.691 43.759,225.334 44.050,225.473 44.110 C 225.834 44.265,226.194 44.504,227.904 45.727 C 229.727 47.030,230.618 47.836,231.722 49.180 C 232.177 49.735,232.709 50.378,232.902 50.608 C 233.477 51.292,234.449 52.857,234.968 53.934 C 235.293 54.611,235.092 55.096,234.421 55.251 C 234.170 55.310,233.813 55.445,233.628 55.552 C 233.443 55.660,232.837 55.919,232.282 56.129 C 231.728 56.339,230.971 56.659,230.601 56.839 C 230.231 57.020,229.823 57.168,229.695 57.167 C 229.566 57.167,229.131 57.318,228.728 57.503 C 228.325 57.688,227.665 57.991,227.262 58.176 C 226.859 58.361,226.414 58.512,226.274 58.512 C 226.133 58.512,225.928 58.621,225.818 58.753 C 225.708 58.886,225.377 59.045,225.083 59.106 C 224.789 59.167,224.394 59.315,224.206 59.434 C 223.753 59.719,223.350 59.384,222.788 58.254 C 221.953 56.574,219.846 54.183,218.949 53.899 C 218.745 53.834,218.579 53.717,218.579 53.638 C 218.579 53.559,218.333 53.442,218.033 53.378 C 217.732 53.315,217.373 53.163,217.234 53.042 C 216.143 52.090,210.255 51.593,208.878 52.337 C 208.582 52.496,208.211 52.627,208.053 52.627 C 207.516 52.627,205.503 53.697,204.372 54.583 C 202.925 55.717,200.762 58.295,200.758 58.890 C 200.757 59.052,200.684 59.185,200.595 59.185 C 200.506 59.185,200.341 59.506,200.228 59.899 C 200.115 60.292,199.922 60.763,199.801 60.945 C 199.679 61.128,199.580 61.402,199.580 61.554 C 199.580 61.706,199.440 62.276,199.270 62.820 C 198.236 66.114,198.624 73.925,199.903 75.573 C 199.976 75.668,200.082 75.984,200.137 76.275 C 200.484 78.110,203.659 81.428,206.215 82.626 C 209.391 84.115,215.513 84.254,218.046 82.895 C 218.201 82.813,218.673 82.582,219.095 82.384 C 220.332 81.802,222.021 80.061,222.600 78.773 C 223.414 76.962,223.598 75.707,223.134 75.134 L 222.813 74.737 217.796 74.653 L 212.778 74.569 212.734 70.170 C 212.695 66.329,212.723 65.737,212.957 65.503 C 213.198 65.262,214.470 65.240,225.696 65.278 L 238.167 65.322 238.135 69.243 C 238.111 72.143,238.038 73.369,237.856 73.951 C 237.720 74.383,237.570 75.116,237.522 75.578 C 237.475 76.040,237.317 76.646,237.172 76.923 C 237.027 77.201,236.908 77.601,236.907 77.812 C 236.907 78.024,236.755 78.494,236.570 78.857 C 236.385 79.219,236.234 79.623,236.234 79.754 C 236.234 79.885,236.125 80.083,235.992 80.193 C 235.860 80.303,235.698 80.634,235.634 80.928 C 235.570 81.222,235.376 81.643,235.203 81.864 C 235.030 82.084,234.889 82.356,234.889 82.468 C 234.889 82.580,234.737 82.809,234.552 82.976 C 234.367 83.143,234.216 83.347,234.216 83.430 C 234.216 83.512,234.138 83.670,234.043 83.782 C 233.949 83.893,233.637 84.347,233.351 84.790 C 232.791 85.657,229.852 88.712,229.188 89.118 C 228.965 89.254,228.665 89.498,228.520 89.660 C 228.375 89.821,228.169 89.954,228.062 89.954 C 227.955 89.954,227.774 90.067,227.660 90.204 C 227.546 90.342,226.950 90.711,226.336 91.024 C 225.723 91.337,224.784 91.829,224.250 92.118 C 223.716 92.407,223.160 92.644,223.014 92.644 C 222.869 92.644,222.511 92.754,222.220 92.887 C 221.236 93.339,219.679 93.788,218.434 93.978 C 217.752 94.081,217.034 94.256,216.836 94.366 C 216.061 94.797,207.642 94.591,205.801 94.095 C 204.922 93.859,203.863 93.579,203.447 93.474 C 202.213 93.160,200.498 92.518,199.916 92.151 C 199.777 92.064,199.227 91.789,198.694 91.540 C 198.160 91.292,197.688 91.030,197.644 90.960 C 197.601 90.889,197.357 90.779,197.103 90.716 C 196.849 90.652,196.602 90.545,196.555 90.477 C 196.508 90.410,196.309 90.246,196.114 90.112 C 194.931 89.304,192.534 87.050,191.477 85.750 C 189.904 83.817,189.483 83.163,188.446 81.042 C 184.925 73.842,184.485 63.886,187.380 56.915 C 187.690 56.169,188.938 53.527,189.168 53.132 C 189.248 52.993,189.438 52.633,189.590 52.333 C 189.742 52.032,189.920 51.786,189.986 51.786 C 190.053 51.786,190.362 51.427,190.674 50.988 C 191.798 49.404,195.630 45.867,196.932 45.210 C 197.186 45.082,198.321 44.508,199.454 43.935 C 201.444 42.928,202.207 42.662,204.696 42.109 C 205.336 41.966,205.937 41.802,206.030 41.745 C 207.055 41.111,214.846 41.082,218.177 41.699 M282.976 41.375 C 284.925 41.597,287.322 42.098,288.945 42.622 C 289.720 42.872,291.969 43.870,292.560 44.225 C 292.699 44.309,293.304 44.622,293.905 44.922 C 295.790 45.862,299.242 48.701,300.631 50.452 C 300.954 50.861,301.377 51.347,301.571 51.533 C 301.975 51.921,302.979 53.353,303.281 53.972 C 303.394 54.203,303.550 54.506,303.629 54.645 C 303.984 55.275,304.921 57.146,305.439 58.260 C 305.568 58.537,305.722 59.029,305.782 59.353 C 305.841 59.676,305.970 60.042,306.067 60.165 C 307.303 61.734,307.337 73.249,306.111 75.494 C 305.985 75.725,305.830 76.179,305.767 76.503 C 305.705 76.826,305.552 77.318,305.429 77.596 C 305.039 78.470,304.025 80.507,303.629 81.211 C 303.550 81.349,303.394 81.652,303.281 81.883 C 303.168 82.114,303.028 82.341,302.969 82.388 C 302.911 82.434,302.737 82.718,302.583 83.018 C 302.429 83.319,302.230 83.565,302.139 83.565 C 302.049 83.565,301.976 83.650,301.976 83.755 C 301.976 83.860,301.805 84.110,301.597 84.309 C 301.389 84.509,300.879 85.076,300.462 85.570 C 299.155 87.120,298.905 87.360,297.265 88.630 C 295.146 90.272,294.733 90.555,294.238 90.707 C 294.009 90.778,293.738 90.902,293.636 90.983 C 293.330 91.226,290.843 92.472,290.122 92.743 C 288.379 93.398,286.936 93.827,285.932 93.987 C 285.328 94.083,284.624 94.251,284.367 94.360 C 283.578 94.694,274.555 94.638,273.392 94.291 C 272.884 94.140,272.108 93.967,271.668 93.908 C 271.228 93.849,270.661 93.692,270.407 93.559 C 270.153 93.427,269.794 93.316,269.609 93.312 C 269.424 93.308,268.970 93.159,268.600 92.980 C 268.230 92.802,267.812 92.653,267.671 92.650 C 267.530 92.647,267.265 92.541,267.082 92.415 C 266.527 92.032,264.255 90.847,263.812 90.709 C 263.432 90.591,262.501 90.014,262.295 89.770 C 262.249 89.715,261.871 89.412,261.454 89.096 C 258.521 86.869,255.680 83.563,254.392 80.877 C 254.104 80.277,253.770 79.672,253.650 79.532 C 253.530 79.392,253.389 79.126,253.337 78.941 C 253.285 78.756,253.021 78.075,252.752 77.427 C 250.504 72.037,250.504 63.818,252.752 58.428 C 253.021 57.781,253.285 57.100,253.337 56.915 C 253.389 56.730,253.526 56.465,253.641 56.326 C 253.757 56.187,254.178 55.431,254.577 54.645 C 255.668 52.495,258.402 49.166,260.310 47.663 C 260.431 47.568,260.870 47.227,261.286 46.906 C 261.702 46.585,262.103 46.227,262.177 46.112 C 262.251 45.996,262.397 45.902,262.500 45.902 C 262.604 45.902,262.808 45.796,262.954 45.667 C 263.403 45.271,267.842 43.057,268.695 42.804 C 269.137 42.672,269.637 42.491,269.807 42.400 C 269.977 42.309,270.796 42.108,271.628 41.953 C 276.439 41.057,279.032 40.925,282.976 41.375 M344.834 41.689 C 345.704 41.879,346.573 42.034,346.766 42.034 C 347.200 42.034,351.075 43.283,351.997 43.719 C 352.367 43.894,353.104 44.239,353.636 44.485 C 354.743 44.997,354.796 45.169,354.185 46.254 C 353.956 46.661,353.686 47.184,353.586 47.415 C 353.160 48.403,351.845 50.968,351.729 51.039 C 351.659 51.082,351.554 51.339,351.494 51.609 C 351.435 51.879,351.278 52.190,351.145 52.300 C 351.012 52.410,350.904 52.633,350.904 52.795 C 350.904 52.958,350.795 53.181,350.662 53.291 C 350.530 53.401,350.372 53.713,350.313 53.984 C 350.171 54.631,349.715 54.629,348.892 53.977 C 348.546 53.703,348.081 53.400,347.859 53.305 C 347.638 53.210,347.343 53.062,347.205 52.976 C 346.587 52.592,345.328 52.098,344.738 52.007 C 344.384 51.953,343.988 51.824,343.858 51.721 C 343.510 51.445,339.648 51.476,339.033 51.759 C 335.925 53.194,335.122 54.416,335.444 57.221 C 335.495 57.666,335.616 58.082,335.713 58.145 C 335.810 58.208,335.972 58.417,336.073 58.609 C 336.279 59.002,338.324 60.426,339.070 60.697 C 339.336 60.794,339.706 60.937,339.891 61.015 C 340.858 61.424,342.153 61.881,342.749 62.023 C 343.119 62.112,343.951 62.383,344.599 62.626 C 345.246 62.870,345.983 63.135,346.236 63.216 C 349.084 64.128,353.038 66.849,354.446 68.866 C 354.763 69.321,355.061 69.731,355.107 69.777 C 355.295 69.965,356.116 71.761,356.116 71.984 C 356.116 72.116,356.216 72.374,356.337 72.556 C 356.771 73.207,357.207 77.364,356.993 78.817 C 356.888 79.533,356.756 80.605,356.699 81.200 C 356.643 81.795,356.498 82.476,356.378 82.713 C 356.258 82.950,356.107 83.504,356.043 83.943 C 355.980 84.382,355.864 84.741,355.788 84.741 C 355.711 84.741,355.524 85.025,355.372 85.372 C 355.221 85.719,354.914 86.305,354.690 86.675 C 354.466 87.045,354.232 87.446,354.169 87.566 C 354.107 87.686,353.782 88.078,353.447 88.436 C 353.112 88.794,352.648 89.311,352.417 89.585 C 351.093 91.153,346.730 93.406,344.034 93.913 C 343.354 94.041,342.683 94.241,342.544 94.356 C 342.188 94.651,332.996 94.651,332.457 94.356 C 332.252 94.244,331.571 94.045,330.944 93.913 C 328.902 93.486,327.653 93.134,327.300 92.886 C 327.109 92.753,326.790 92.644,326.591 92.644 C 326.392 92.644,326.141 92.538,326.033 92.408 C 325.925 92.279,325.665 92.129,325.453 92.076 C 324.981 91.957,323.476 91.244,322.573 90.710 C 322.203 90.492,321.673 90.198,321.396 90.058 C 320.123 89.415,320.046 89.083,320.836 87.646 C 321.129 87.112,321.648 86.145,321.989 85.498 C 322.330 84.851,322.972 83.640,323.416 82.808 C 323.860 81.976,324.403 80.954,324.622 80.538 C 325.323 79.209,325.777 79.260,327.484 80.862 C 327.688 81.054,327.923 81.211,328.007 81.211 C 328.091 81.211,328.340 81.349,328.561 81.519 C 331.778 83.994,338.106 84.894,340.900 83.274 C 341.893 82.698,342.819 81.926,342.828 81.666 C 342.831 81.593,342.992 81.318,343.187 81.054 C 343.847 80.162,343.830 77.265,343.162 76.494 C 342.981 76.285,342.833 76.056,342.833 75.983 C 342.833 75.696,341.530 74.646,340.652 74.226 C 340.141 73.981,339.522 73.674,339.276 73.544 C 339.031 73.414,338.709 73.308,338.561 73.308 C 338.413 73.308,338.010 73.157,337.665 72.972 C 337.320 72.787,336.920 72.636,336.776 72.636 C 336.633 72.636,336.218 72.484,335.855 72.299 C 335.493 72.114,335.027 71.963,334.821 71.963 C 334.615 71.963,334.401 71.889,334.345 71.799 C 334.289 71.709,333.926 71.556,333.536 71.458 C 333.147 71.361,332.640 71.176,332.409 71.049 C 332.177 70.921,331.707 70.764,331.364 70.700 C 331.020 70.635,330.652 70.477,330.544 70.348 C 330.437 70.219,330.279 70.113,330.192 70.113 C 330.005 70.113,328.159 69.261,328.037 69.118 C 327.991 69.064,327.612 68.793,327.196 68.516 C 325.590 67.446,323.639 65.031,323.063 63.401 C 322.914 62.978,322.691 62.367,322.569 62.043 C 320.864 57.538,322.874 49.527,326.657 45.744 C 328.050 44.352,332.080 42.034,333.109 42.034 C 333.365 42.034,333.930 41.913,334.366 41.765 C 336.310 41.105,341.971 41.064,344.834 41.689 M77.586 42.273 C 77.112 42.619,76.981 92.823,77.452 93.344 C 77.895 93.833,105.887 93.825,106.330 93.335 C 106.717 92.908,106.675 83.135,106.285 82.665 C 106.076 82.415,105.319 82.388,98.518 82.388 L 90.982 82.388 90.720 82.014 C 90.487 81.681,90.458 79.513,90.458 62.102 C 90.458 44.563,90.431 42.536,90.194 42.299 C 89.817 41.922,78.099 41.898,77.586 42.273 M90.122 62.435 C 90.204 81.801,90.213 82.252,90.532 82.485 C 90.803 82.683,92.163 82.724,98.472 82.724 L 106.086 82.724 106.132 87.950 C 106.158 90.825,106.148 93.208,106.109 93.247 C 105.997 93.359,78.071 93.327,77.778 93.214 C 77.345 93.048,77.373 42.973,77.806 42.719 C 77.995 42.608,80.221 42.560,84.069 42.585 L 90.038 42.623 90.122 62.435 M142.161 53.408 C 141.791 53.449,141.250 53.593,140.958 53.727 C 140.667 53.862,140.300 53.972,140.143 53.972 C 139.986 53.972,139.581 54.092,139.244 54.238 C 138.295 54.649,136.463 55.548,136.276 55.696 C 136.183 55.768,135.937 55.959,135.728 56.119 C 134.427 57.117,134.005 57.498,133.275 58.334 C 132.309 59.442,130.730 62.067,130.565 62.843 C 130.500 63.145,130.350 63.599,130.231 63.852 C 129.854 64.652,129.576 68.029,129.785 69.273 C 129.886 69.874,129.969 70.631,129.970 70.954 C 129.972 71.278,130.079 71.746,130.208 71.994 C 130.337 72.242,130.496 72.696,130.560 73.003 C 130.624 73.309,130.797 73.749,130.945 73.981 C 131.094 74.212,131.396 74.739,131.616 75.153 C 132.361 76.545,133.723 78.089,135.687 79.767 C 139.233 82.795,147.822 83.481,151.254 81.010 C 151.355 80.938,151.822 80.670,152.292 80.414 C 158.302 77.147,161.177 68.379,158.261 62.211 C 157.856 61.355,156.689 59.310,156.438 59.016 C 154.474 56.721,150.410 53.972,148.981 53.972 C 148.784 53.972,148.342 53.851,147.998 53.703 C 147.365 53.430,143.660 53.243,142.161 53.408 M276.503 53.456 C 276.133 53.519,275.665 53.661,275.463 53.771 C 275.261 53.882,274.941 53.972,274.752 53.972 C 274.327 53.972,272.215 54.826,272.215 54.998 C 272.215 55.066,272.007 55.170,271.753 55.227 C 271.385 55.310,269.955 56.327,268.600 57.468 C 268.174 57.827,266.722 59.609,266.468 60.084 C 265.741 61.449,265.153 62.723,265.153 62.935 C 265.153 63.063,265.046 63.388,264.915 63.656 C 264.126 65.268,264.129 71.002,264.918 72.251 C 265.047 72.456,265.153 72.751,265.153 72.908 C 265.153 73.176,265.916 74.846,266.373 75.578 C 268.208 78.519,271.942 81.348,274.821 81.978 C 275.099 82.039,275.650 82.193,276.046 82.322 C 277.822 82.898,283.020 82.423,284.647 81.535 C 284.791 81.456,285.326 81.193,285.834 80.950 C 287.405 80.201,288.184 79.643,289.598 78.259 C 290.707 77.172,292.045 75.443,292.052 75.087 C 292.054 75.002,292.154 74.812,292.274 74.666 C 294.300 72.200,294.320 63.939,292.306 61.202 C 292.204 61.063,292.027 60.761,291.913 60.530 C 291.528 59.748,291.260 59.336,290.943 59.035 C 290.769 58.870,290.328 58.383,289.963 57.951 C 289.598 57.520,289.248 57.167,289.186 57.167 C 289.123 57.167,288.740 56.863,288.336 56.491 C 287.931 56.119,287.259 55.654,286.843 55.456 C 286.427 55.259,285.973 55.011,285.834 54.905 C 285.323 54.516,283.108 53.787,281.463 53.467 C 280.584 53.296,277.484 53.289,276.503 53.456 M148.214 54.129 C 159.680 57.165,162.878 71.715,153.675 78.981 C 143.541 86.983,128.821 79.103,130.134 66.380 C 130.493 62.899,132.509 59.081,135.054 57.062 C 138.840 54.057,143.783 52.956,148.214 54.129 M282.472 54.049 C 286.813 55.276,289.610 57.324,291.605 60.734 C 293.475 63.933,294.071 68.941,292.950 72.047 C 292.817 72.417,292.632 72.969,292.539 73.275 C 291.800 75.715,288.720 79.088,285.959 80.481 C 275.162 85.927,263.340 77.743,264.791 65.826 C 265.770 57.782,274.681 51.846,282.472 54.049 M341.014 118.410 L 341.068 118.789 349.559 118.789 C 357.938 118.789,358.050 118.785,358.050 118.453 C 358.050 118.122,357.923 118.116,349.505 118.073 L 340.960 118.030 341.014 118.410 M359.441 119.808 C 359.647 119.952,359.815 120.217,359.815 120.396 C 359.815 120.611,359.930 120.723,360.151 120.723 C 360.376 120.723,360.488 120.835,360.488 121.059 C 360.488 121.246,360.600 121.396,360.740 121.396 C 360.880 121.396,360.992 121.545,360.992 121.732 C 360.992 122.004,361.104 122.068,361.580 122.068 C 362.081 122.068,362.168 122.012,362.161 121.690 C 362.152 121.270,360.563 119.882,360.090 119.882 C 359.939 119.882,359.815 119.807,359.815 119.714 C 359.815 119.622,359.647 119.546,359.441 119.546 L 359.068 119.546 359.441 119.808 M363.122 122.685 C 362.890 122.916,363.022 123.245,363.346 123.245 C 363.593 123.245,363.682 123.357,363.682 123.665 C 363.682 123.974,363.772 124.086,364.018 124.086 C 364.205 124.086,364.355 124.198,364.355 124.338 C 364.355 124.506,364.523 124.590,364.859 124.590 C 365.238 124.590,365.364 124.513,365.364 124.278 C 365.364 123.951,364.435 123.077,364.088 123.077 C 363.977 123.077,363.843 122.963,363.790 122.825 C 363.690 122.565,363.319 122.487,363.122 122.685 M366.435 125.456 C 366.692 125.605,366.707 125.668,366.519 125.803 C 366.341 125.929,366.356 125.945,366.583 125.872 C 366.809 125.800,366.877 125.873,366.877 126.193 C 366.877 126.487,366.969 126.608,367.194 126.608 C 367.369 126.608,367.549 126.758,367.598 126.944 C 367.646 127.129,367.798 127.280,367.934 127.280 C 368.071 127.280,368.222 127.432,368.271 127.617 C 368.403 128.122,369.231 128.085,369.231 127.574 C 369.231 127.204,368.413 126.272,368.089 126.272 C 368.000 126.272,367.833 126.158,367.718 126.019 C 367.602 125.881,367.366 125.767,367.193 125.767 C 367.019 125.767,366.877 125.654,366.877 125.515 C 366.877 125.364,366.725 125.265,366.499 125.268 C 366.145 125.273,366.141 125.285,366.435 125.456 M370.285 128.782 C 370.298 128.961,370.369 129.069,370.443 129.024 C 370.516 128.979,370.650 129.135,370.740 129.372 C 370.830 129.609,371.019 129.802,371.160 129.802 C 371.304 129.802,371.417 129.949,371.417 130.139 C 371.417 130.356,371.529 130.475,371.733 130.475 C 371.908 130.475,372.089 130.625,372.138 130.811 C 372.274 131.332,373.098 131.277,373.098 130.747 C 373.098 130.357,372.170 129.466,371.764 129.466 C 371.665 129.466,371.585 129.389,371.585 129.294 C 371.585 129.199,371.396 129.050,371.164 128.962 C 370.933 128.874,370.744 128.724,370.744 128.630 C 370.744 128.535,370.635 128.457,370.502 128.457 C 370.367 128.457,370.271 128.600,370.285 128.782 M374.005 131.918 C 374.061 132.064,374.107 132.216,374.107 132.254 C 374.107 132.293,374.220 132.325,374.359 132.325 C 374.499 132.325,374.611 132.474,374.611 132.661 C 374.611 132.885,374.723 132.997,374.947 132.997 C 375.172 132.997,375.284 133.109,375.284 133.333 C 375.284 133.558,375.396 133.670,375.620 133.670 C 375.844 133.670,375.956 133.782,375.956 134.006 C 375.956 134.268,376.068 134.342,376.466 134.342 C 377.256 134.342,377.303 133.888,376.577 133.267 C 374.938 131.867,373.745 131.240,374.005 131.918 M377.806 135.183 C 377.806 135.407,377.918 135.519,378.142 135.519 C 378.366 135.519,378.478 135.631,378.478 135.855 C 378.478 136.080,378.590 136.192,378.815 136.192 C 379.039 136.192,379.151 136.304,379.151 136.528 C 379.151 136.752,379.263 136.864,379.487 136.864 C 379.711 136.864,379.823 136.976,379.823 137.201 C 379.823 137.625,380.785 137.688,380.944 137.274 C 381.052 136.992,379.416 135.358,379.020 135.354 C 378.901 135.352,378.761 135.237,378.707 135.099 C 378.556 134.705,377.806 134.775,377.806 135.183 M381.673 138.377 C 381.673 138.602,381.785 138.714,382.009 138.714 C 382.256 138.714,382.346 138.826,382.346 139.134 C 382.346 139.365,382.402 139.545,382.472 139.535 C 382.818 139.480,383.018 139.579,383.018 139.807 C 383.018 139.975,383.186 140.059,383.522 140.059 C 384.407 140.059,384.209 139.372,383.116 138.646 C 382.083 137.961,381.673 137.884,381.673 138.377 M186.465 139.891 C 40.030 139.971,32.673 139.989,32.072 140.271 C 31.232 140.666,31.150 141.404,31.946 141.404 C 32.339 141.404,32.451 141.329,32.451 141.068 C 32.451 140.732,32.563 140.731,186.717 140.731 L 340.984 140.731 340.984 140.227 C 340.984 139.804,340.923 139.729,340.605 139.764 C 340.397 139.787,271.034 139.844,186.465 139.891 M29.088 142.742 C 29.088 142.831,28.747 143.103,28.331 143.346 C 27.382 143.902,27.242 144.599,28.079 144.599 C 28.471 144.599,28.583 144.524,28.583 144.262 C 28.583 144.038,28.696 143.926,28.920 143.926 C 29.137 143.926,29.256 143.814,29.256 143.609 C 29.256 143.434,29.406 143.253,29.592 143.205 C 30.088 143.075,30.022 142.581,29.508 142.581 C 29.277 142.581,29.088 142.653,29.088 142.742 M25.893 145.523 C 25.778 145.662,25.614 145.776,25.529 145.776 C 25.444 145.776,25.169 145.971,24.919 146.209 C 24.669 146.447,24.294 146.710,24.086 146.793 C 23.469 147.039,23.565 147.775,24.212 147.756 C 24.585 147.746,24.716 147.661,24.716 147.431 C 24.716 147.233,24.838 147.121,25.053 147.121 C 25.237 147.121,25.389 147.035,25.389 146.930 C 25.389 146.703,26.242 145.869,26.479 145.863 C 26.571 145.861,26.671 145.727,26.702 145.565 C 26.773 145.194,26.192 145.163,25.893 145.523 M22.092 148.537 C 22.036 148.683,21.899 148.802,21.789 148.802 C 21.678 148.802,21.307 149.059,20.963 149.373 C 20.620 149.688,20.227 149.988,20.090 150.041 C 19.532 150.255,19.795 150.988,20.429 150.988 C 20.820 150.988,21.017 150.909,21.017 150.754 C 21.017 150.625,21.131 150.476,21.269 150.423 C 21.408 150.369,21.522 150.210,21.522 150.068 C 21.522 149.926,21.667 149.811,21.846 149.811 C 22.055 149.811,22.190 149.676,22.225 149.433 C 22.254 149.224,22.392 149.054,22.530 149.054 C 22.886 149.054,22.847 148.399,22.488 148.330 C 22.326 148.298,22.147 148.392,22.092 148.537 M18.159 151.828 C 18.159 151.921,18.079 151.997,17.982 151.997 C 17.603 151.997,16.646 152.930,16.646 153.300 C 16.646 153.608,16.739 153.678,17.150 153.678 C 17.542 153.678,17.654 153.603,17.654 153.342 C 17.654 153.118,17.767 153.005,17.991 153.005 C 18.208 153.005,18.327 152.893,18.327 152.689 C 18.327 152.514,18.477 152.333,18.663 152.284 C 19.159 152.154,19.093 151.660,18.579 151.660 C 18.348 151.660,18.159 151.736,18.159 151.828 M14.292 155.023 C 14.292 155.116,14.211 155.191,14.112 155.191 C 13.706 155.191,12.778 156.082,12.778 156.472 C 12.778 156.805,12.864 156.873,13.283 156.873 C 13.675 156.873,13.787 156.798,13.787 156.536 C 13.787 156.312,13.899 156.200,14.124 156.200 C 14.341 156.200,14.460 156.088,14.460 155.883 C 14.460 155.708,14.610 155.527,14.796 155.479 C 15.292 155.349,15.226 154.855,14.712 154.855 C 14.481 154.855,14.292 154.931,14.292 155.023 M11.158 157.629 C 11.105 157.768,10.918 157.881,10.743 157.881 C 10.568 157.881,10.425 157.959,10.425 158.053 C 10.425 158.148,10.235 158.311,10.004 158.416 C 9.362 158.709,9.421 159.395,10.088 159.395 C 10.481 159.395,10.593 159.320,10.593 159.058 C 10.593 158.834,10.705 158.722,10.929 158.722 C 11.153 158.722,11.265 158.610,11.265 158.386 C 11.265 158.201,11.322 158.059,11.391 158.070 C 11.947 158.157,12.177 157.673,11.672 157.479 C 11.299 157.336,11.267 157.345,11.158 157.629 M7.291 160.824 C 7.238 160.963,7.120 161.076,7.030 161.076 C 6.601 161.076,4.915 162.619,4.998 162.936 C 5.110 163.365,5.549 163.357,5.549 162.926 C 5.549 162.741,5.629 162.589,5.728 162.589 C 5.831 162.589,5.862 162.733,5.801 162.926 C 5.740 163.119,5.771 163.262,5.873 163.262 C 5.972 163.262,6.053 163.111,6.053 162.926 C 6.053 162.708,6.165 162.589,6.370 162.589 C 6.551 162.589,6.726 162.437,6.780 162.231 C 6.842 161.992,6.961 161.907,7.136 161.974 C 7.304 162.038,7.398 161.981,7.398 161.812 C 7.398 161.668,7.561 161.418,7.761 161.256 C 7.965 161.091,8.071 160.877,8.003 160.767 C 7.832 160.491,7.406 160.525,7.291 160.824 " stroke="none" fill="#646464" fill-rule="evenodd"></path><path id="path3" d="M51.913 20.863 C 51.633 21.025,51.618 23.472,51.618 68.515 L 51.618 115.996 51.992 116.258 C 52.330 116.494,67.167 116.520,205.429 116.520 C 318.660 116.520,358.584 116.569,358.846 116.709 C 359.168 116.881,362.671 119.719,363.682 120.627 C 363.913 120.834,365.275 121.947,366.709 123.099 C 368.142 124.251,369.580 125.427,369.903 125.712 C 370.950 126.636,375.710 130.576,376.900 131.505 C 377.537 132.002,378.247 132.570,378.478 132.768 C 378.709 132.965,379.466 133.612,380.160 134.205 C 384.221 137.680,384.282 137.691,384.440 134.966 C 384.757 129.501,384.454 21.163,384.121 20.920 C 383.711 20.620,52.427 20.563,51.913 20.863 M383.757 21.283 C 383.887 21.623,383.892 136.271,383.761 136.401 C 383.678 136.485,381.072 134.504,380.832 134.175 C 380.786 134.111,379.752 133.261,378.533 132.286 C 375.742 130.051,375.901 130.181,374.973 129.372 C 374.543 128.997,373.245 127.909,372.089 126.955 C 370.933 126.000,369.760 125.022,369.483 124.780 C 369.206 124.538,368.525 123.980,367.970 123.539 C 367.415 123.098,366.696 122.519,366.372 122.252 C 365.528 121.555,364.388 120.620,362.977 119.467 C 362.301 118.915,361.257 118.036,360.656 117.515 C 360.055 116.993,359.321 116.443,359.025 116.291 C 358.527 116.036,346.958 116.015,205.506 116.015 C 86.746 116.015,52.481 115.970,52.325 115.813 C 52.031 115.519,52.031 21.513,52.325 21.219 C 52.676 20.868,383.622 20.932,383.757 21.283 M140.900 40.508 C 139.836 40.576,138.815 40.713,138.630 40.812 C 138.445 40.911,137.839 41.047,137.285 41.114 C 136.730 41.181,136.130 41.312,135.951 41.405 C 135.772 41.498,135.243 41.672,134.774 41.791 C 133.562 42.098,132.452 42.525,132.143 42.804 C 131.997 42.936,131.793 43.043,131.689 43.043 C 131.497 43.043,129.366 44.126,128.289 44.771 C 126.902 45.602,123.927 48.163,122.746 49.545 C 122.610 49.704,122.232 50.144,121.905 50.524 C 120.337 52.347,119.964 52.937,118.450 55.990 C 117.265 58.380,116.993 59.134,116.272 62.016 C 115.641 64.540,115.637 71.337,116.266 73.813 C 116.591 75.092,117.372 77.652,117.547 78.016 C 119.763 82.601,120.373 83.603,122.271 85.770 C 122.483 86.012,122.959 86.568,123.329 87.004 C 123.943 87.729,124.717 88.402,126.951 90.156 C 127.388 90.499,128.643 91.246,129.740 91.817 C 130.838 92.388,131.913 92.965,132.129 93.099 C 135.529 95.211,145.646 96.188,151.077 94.929 C 154.947 94.032,160.177 91.749,162.214 90.068 C 162.652 89.707,163.264 89.212,163.576 88.968 C 164.882 87.945,165.736 87.086,167.030 85.498 C 168.296 83.944,169.483 82.311,169.483 82.124 C 169.483 82.081,169.872 81.356,170.347 80.513 C 174.389 73.343,174.401 62.577,170.375 55.382 C 169.916 54.560,169.489 53.775,169.426 53.636 C 168.813 52.281,165.517 48.421,163.969 47.247 C 163.664 47.016,163.286 46.710,163.128 46.569 C 162.253 45.782,161.146 44.991,160.289 44.541 C 159.755 44.260,159.241 43.969,159.146 43.893 C 159.052 43.818,158.789 43.700,158.562 43.630 C 158.335 43.560,158.046 43.400,157.919 43.273 C 157.793 43.147,157.568 43.043,157.420 43.043 C 157.272 43.043,157.032 42.936,156.886 42.804 C 156.575 42.524,155.464 42.097,154.238 41.787 C 153.760 41.666,153.288 41.517,153.190 41.456 C 153.092 41.395,152.461 41.241,151.789 41.113 C 151.117 40.986,150.279 40.807,149.927 40.717 C 149.050 40.491,143.262 40.358,140.900 40.508 M209.164 40.516 C 207.915 40.582,206.629 40.723,206.305 40.830 C 205.671 41.038,204.255 41.413,202.774 41.764 C 201.620 42.038,200.202 42.522,200.087 42.682 C 200.039 42.748,199.168 43.211,198.150 43.711 C 197.133 44.211,196.276 44.681,196.245 44.756 C 196.214 44.831,196.113 44.893,196.020 44.893 C 195.926 44.893,195.424 45.252,194.903 45.691 C 194.383 46.131,193.728 46.679,193.449 46.910 C 191.936 48.164,188.652 51.925,188.650 52.406 C 188.650 52.532,187.874 54.091,186.992 55.736 C 186.795 56.104,186.633 56.524,186.633 56.668 C 186.633 56.813,186.550 57.015,186.447 57.117 C 186.345 57.219,186.160 57.745,186.036 58.286 C 185.737 59.589,185.471 60.600,185.157 61.623 C 184.639 63.315,184.581 73.244,185.086 73.857 C 185.180 73.971,185.337 74.500,185.435 75.032 C 185.533 75.564,185.682 76.132,185.767 76.293 C 185.852 76.455,185.976 76.917,186.043 77.321 C 186.208 78.313,187.639 81.513,188.420 82.635 C 188.547 82.818,188.651 83.072,188.651 83.201 C 188.651 83.632,192.308 88.008,193.471 88.969 C 194.103 89.490,194.893 90.149,195.227 90.433 C 195.561 90.717,196.658 91.377,197.665 91.901 C 198.672 92.425,199.723 92.988,200.000 93.153 C 200.277 93.317,200.769 93.529,201.093 93.623 C 207.455 95.467,207.005 95.394,212.022 95.399 C 216.568 95.403,217.095 95.337,220.597 94.320 C 223.255 93.549,226.966 91.815,228.583 90.588 C 231.500 88.377,232.881 86.914,234.809 83.995 C 235.500 82.948,236.066 82.051,236.066 82.002 C 236.066 81.953,236.328 81.352,236.649 80.666 C 238.182 77.395,238.842 74.169,239.081 68.792 C 239.229 65.446,239.165 64.906,238.581 64.611 C 238.262 64.450,235.256 64.401,225.423 64.399 L 212.679 64.397 212.266 64.810 L 211.854 65.222 211.854 70.003 C 211.854 74.459,211.876 74.811,212.175 75.181 L 212.496 75.578 217.555 75.627 L 222.615 75.676 222.615 76.168 C 222.615 77.187,221.565 79.199,220.429 80.357 C 218.413 82.412,213.330 83.650,209.920 82.917 C 206.166 82.110,203.752 80.633,202.005 78.077 C 198.582 73.065,198.582 63.559,202.004 58.260 C 202.629 57.291,205.000 54.813,205.302 54.813 C 205.382 54.813,205.773 54.594,206.171 54.326 C 211.078 51.019,220.143 53.423,222.092 58.548 C 222.827 60.481,223.488 60.712,225.566 59.762 C 226.743 59.223,230.408 57.709,231.106 57.473 C 231.383 57.379,231.856 57.196,232.156 57.066 C 236.680 55.116,236.609 55.198,235.470 53.216 C 235.151 52.661,234.839 52.093,234.777 51.955 C 234.266 50.810,230.206 46.221,229.211 45.665 C 229.053 45.576,228.776 45.366,228.596 45.198 C 228.415 45.030,228.212 44.893,228.143 44.893 C 228.075 44.893,227.919 44.797,227.797 44.680 C 227.280 44.187,225.263 43.043,224.909 43.043 C 224.794 43.043,224.615 42.958,224.511 42.855 C 224.251 42.595,222.490 41.891,221.774 41.760 C 221.450 41.701,220.996 41.558,220.765 41.441 C 220.534 41.324,219.890 41.175,219.336 41.111 C 218.781 41.046,218.024 40.896,217.654 40.778 C 216.797 40.505,212.115 40.360,209.164 40.516 M275.410 40.507 C 274.346 40.576,273.325 40.711,273.140 40.808 C 272.955 40.904,272.350 41.038,271.795 41.106 C 271.240 41.173,270.640 41.306,270.461 41.401 C 270.283 41.497,269.753 41.672,269.284 41.791 C 268.073 42.098,266.963 42.525,266.653 42.804 C 266.507 42.936,266.266 43.043,266.117 43.043 C 265.968 43.043,265.801 43.115,265.747 43.203 C 265.693 43.291,264.929 43.715,264.050 44.146 C 263.171 44.576,262.284 45.071,262.079 45.245 C 261.874 45.420,261.396 45.809,261.017 46.111 C 259.502 47.313,258.206 48.463,257.784 48.976 C 257.540 49.273,257.300 49.554,257.251 49.601 C 256.434 50.371,254.478 52.930,254.317 53.440 C 254.249 53.656,253.784 54.541,253.284 55.407 C 252.784 56.272,252.375 57.082,252.375 57.205 C 252.375 57.328,252.275 57.578,252.152 57.760 C 251.860 58.195,251.255 60.082,251.108 61.017 C 251.044 61.424,250.872 62.029,250.725 62.362 C 250.332 63.253,250.323 72.597,250.715 73.476 C 250.859 73.800,251.029 74.367,251.092 74.737 C 251.257 75.703,251.889 77.706,252.151 78.095 C 252.274 78.278,252.375 78.529,252.375 78.655 C 252.375 78.780,252.669 79.387,253.028 80.004 C 253.387 80.622,253.940 81.625,254.257 82.235 C 254.742 83.169,256.791 85.875,258.008 87.188 C 258.311 87.515,259.906 88.880,261.534 90.206 C 263.420 91.742,268.921 94.157,272.131 94.859 C 277.478 96.027,286.408 95.489,289.573 93.808 C 289.734 93.723,289.961 93.652,290.078 93.652 C 290.194 93.651,290.517 93.531,290.794 93.384 C 291.072 93.238,292.282 92.617,293.485 92.005 C 297.829 89.794,302.687 85.136,304.258 81.675 C 304.395 81.373,304.804 80.597,305.168 79.950 C 305.533 79.302,305.915 78.508,306.019 78.184 C 306.123 77.860,306.347 77.217,306.517 76.755 C 308.786 70.584,308.260 61.793,305.283 56.158 C 304.917 55.464,304.329 54.341,303.976 53.662 C 303.414 52.580,302.446 51.207,301.883 50.694 C 301.782 50.601,301.212 49.968,300.618 49.286 C 299.226 47.689,296.133 45.243,294.271 44.265 C 293.469 43.844,292.663 43.397,292.480 43.271 C 292.298 43.146,292.039 43.043,291.905 43.043 C 291.771 43.043,291.542 42.936,291.396 42.804 C 291.085 42.524,289.975 42.097,288.748 41.787 C 288.270 41.666,287.783 41.507,287.666 41.435 C 287.548 41.362,286.918 41.209,286.265 41.094 C 285.612 40.980,284.783 40.810,284.423 40.716 C 283.540 40.486,277.806 40.354,275.410 40.507 M336.764 40.505 C 335.784 40.560,334.876 40.690,334.746 40.794 C 334.616 40.898,334.132 41.036,333.670 41.100 C 332.432 41.271,329.213 42.651,328.305 43.399 C 328.204 43.482,327.629 43.935,327.028 44.405 C 326.427 44.875,325.865 45.385,325.778 45.539 C 325.692 45.692,325.525 45.914,325.408 46.032 C 324.938 46.504,324.032 47.696,323.782 48.172 C 322.960 49.734,322.488 50.755,322.488 50.970 C 322.488 51.105,322.408 51.295,322.309 51.394 C 322.210 51.493,322.028 52.019,321.903 52.563 C 321.779 53.107,321.596 53.855,321.498 54.224 C 321.278 55.053,321.261 60.059,321.476 60.866 C 321.562 61.190,321.720 61.795,321.826 62.211 C 321.933 62.627,322.123 63.195,322.250 63.472 C 322.376 63.749,322.558 64.166,322.655 64.397 C 322.825 64.806,322.927 64.971,323.859 66.346 C 324.587 67.419,326.547 69.174,327.869 69.935 C 328.884 70.519,331.310 71.627,331.575 71.627 C 331.682 71.627,332.008 71.733,332.299 71.862 C 332.590 71.992,333.510 72.342,334.342 72.641 C 335.174 72.939,336.347 73.367,336.948 73.591 C 337.549 73.815,338.306 74.078,338.630 74.174 C 342.373 75.291,344.206 78.951,342.161 81.226 C 342.022 81.381,341.795 81.652,341.656 81.830 C 340.191 83.705,333.259 83.592,330.334 81.645 C 330.041 81.451,329.601 81.202,329.354 81.093 C 329.107 80.984,328.179 80.355,327.291 79.696 C 324.967 77.973,325.082 77.913,322.979 81.967 C 322.691 82.522,322.130 83.581,321.731 84.321 C 318.796 89.768,318.804 89.607,321.396 90.963 C 322.135 91.350,322.854 91.759,322.993 91.873 C 323.132 91.987,323.737 92.290,324.338 92.547 C 324.939 92.804,325.738 93.158,326.114 93.333 C 326.490 93.509,326.910 93.653,327.048 93.653 C 327.185 93.653,327.369 93.724,327.457 93.811 C 327.545 93.897,328.449 94.170,329.466 94.416 C 330.483 94.662,331.663 94.967,332.087 95.094 C 333.986 95.659,341.164 95.549,343.590 94.918 C 345.733 94.360,346.632 94.092,347.037 93.892 C 347.268 93.778,348.048 93.403,348.771 93.060 C 349.493 92.717,350.288 92.273,350.536 92.073 C 350.785 91.873,351.302 91.499,351.686 91.240 C 352.306 90.824,353.385 89.710,354.641 88.188 C 355.268 87.429,356.566 84.870,356.880 83.775 C 357.032 83.243,357.273 82.430,357.415 81.967 C 357.816 80.664,357.904 75.362,357.546 74.149 C 357.396 73.640,357.214 72.921,357.143 72.551 C 356.309 68.233,350.891 63.564,344.654 61.788 C 344.222 61.665,343.716 61.483,343.530 61.383 C 343.344 61.284,343.025 61.202,342.821 61.202 C 342.617 61.202,342.139 61.059,341.759 60.884 C 341.379 60.709,340.500 60.353,339.807 60.093 C 336.283 58.770,335.132 56.375,336.896 54.036 C 337.997 52.576,341.888 51.823,344.262 52.609 C 345.625 53.061,346.983 53.720,348.169 54.505 C 350.241 55.876,350.316 55.839,351.803 52.711 C 352.243 51.786,352.675 50.916,352.762 50.778 C 352.850 50.639,352.998 50.336,353.090 50.105 C 353.182 49.874,353.331 49.571,353.421 49.433 C 353.933 48.646,355.443 45.417,355.443 45.111 C 355.443 44.516,355.258 44.396,351.814 42.762 C 351.529 42.627,351.038 42.452,350.722 42.374 C 350.406 42.296,349.920 42.153,349.643 42.056 C 348.136 41.530,347.350 41.320,346.364 41.178 C 345.763 41.092,344.893 40.915,344.430 40.784 C 343.450 40.507,339.358 40.358,336.764 40.505 M149.559 41.127 C 158.028 42.536,165.769 47.652,169.163 54.086 C 169.496 54.717,170.074 55.804,170.447 56.501 C 172.137 59.657,172.745 62.674,172.749 67.928 C 172.754 74.001,172.224 76.093,169.325 81.463 C 165.811 87.972,158.238 93.200,150.315 94.588 C 125.430 98.947,107.841 75.166,120.104 53.741 C 120.873 52.397,121.227 51.937,123.329 49.547 C 129.173 42.902,139.772 39.500,149.559 41.127 M217.066 41.110 C 217.760 41.235,218.630 41.387,219.000 41.447 C 219.669 41.556,220.592 41.804,222.194 42.308 C 222.923 42.537,225.865 43.842,226.424 44.185 C 231.170 47.092,236.950 54.420,235.175 55.280 C 234.330 55.690,230.334 57.335,230.184 57.335 C 230.095 57.335,229.698 57.484,229.303 57.667 C 228.907 57.849,227.827 58.306,226.902 58.682 C 225.977 59.057,225.020 59.476,224.774 59.611 C 223.685 60.212,223.276 59.997,222.458 58.398 C 221.567 56.653,219.513 54.469,218.158 53.826 C 217.696 53.606,217.048 53.290,216.717 53.123 C 213.802 51.649,208.747 52.149,205.464 54.237 C 197.753 59.141,196.541 73.768,203.314 80.178 C 208.338 84.932,218.644 84.489,221.814 79.383 C 222.786 77.817,223.243 75.853,222.749 75.359 C 222.602 75.212,221.259 75.158,217.760 75.158 C 213.542 75.158,212.937 75.125,212.666 74.879 C 212.218 74.474,212.191 65.700,212.636 65.209 C 213.090 64.707,238.047 64.733,238.502 65.236 C 238.835 65.603,238.814 67.249,238.419 71.795 C 237.128 86.654,224.951 96.328,209.332 94.903 C 206.067 94.605,206.022 94.597,203.357 93.831 C 199.155 92.623,195.644 90.557,192.608 87.505 C 189.962 84.845,187.717 81.208,186.700 77.932 C 186.470 77.192,186.171 76.229,186.035 75.792 C 184.760 71.686,184.759 64.058,186.032 59.892 C 186.165 59.456,186.436 58.571,186.634 57.923 C 187.032 56.622,189.243 52.080,189.790 51.438 C 189.981 51.213,190.717 50.349,191.426 49.517 C 194.215 46.241,200.934 42.034,203.377 42.034 C 203.576 42.034,204.217 41.882,204.801 41.695 C 205.759 41.389,208.734 40.955,210.929 40.801 C 212.363 40.701,215.744 40.871,217.066 41.110 M284.405 41.195 C 290.118 42.183,294.839 44.436,298.845 48.087 C 302.807 51.698,305.655 56.651,306.920 62.127 C 307.539 64.809,307.580 71.226,306.992 73.392 C 306.891 73.762,306.714 74.481,306.597 74.989 C 306.362 76.017,305.374 78.839,305.151 79.123 C 305.072 79.223,304.639 80.017,304.188 80.888 C 303.105 82.982,301.403 85.285,299.540 87.177 C 292.665 94.158,279.778 96.982,269.667 93.723 C 267.653 93.074,263.028 90.812,261.875 89.912 C 258.291 87.117,255.736 84.228,254.104 81.127 C 253.910 80.757,253.550 80.076,253.305 79.613 C 253.059 79.151,252.681 78.319,252.463 77.764 C 249.895 71.214,250.102 62.769,252.973 56.961 C 254.163 54.555,255.324 52.476,255.740 52.009 C 255.972 51.748,256.704 50.891,257.367 50.105 C 258.029 49.319,258.747 48.526,258.962 48.343 C 264.668 43.486,269.338 41.464,276.251 40.859 C 278.488 40.664,282.219 40.817,284.405 41.195 M344.430 41.213 C 348.159 41.868,351.644 42.993,354.266 44.390 C 355.222 44.899,355.162 45.108,352.623 50.122 C 349.952 55.397,350.130 55.223,348.497 54.164 C 343.318 50.801,337.733 51.054,336.002 54.729 C 334.938 56.989,336.180 59.095,339.323 60.362 C 339.820 60.562,340.454 60.819,340.731 60.933 C 341.009 61.047,341.917 61.355,342.749 61.617 C 348.028 63.282,351.383 65.058,353.610 67.367 C 354.579 68.371,356.116 70.541,356.116 70.905 C 356.116 70.975,356.262 71.412,356.441 71.876 C 357.687 75.107,357.710 79.566,356.502 83.480 C 356.029 85.014,356.008 85.071,355.790 85.414 C 355.702 85.553,355.328 86.196,354.959 86.843 C 354.590 87.491,354.113 88.211,353.899 88.445 C 353.685 88.679,353.179 89.235,352.775 89.682 C 350.212 92.516,345.124 94.568,339.634 94.982 C 333.703 95.429,327.631 93.974,321.827 90.717 C 319.489 89.404,319.464 89.291,320.940 86.675 C 321.253 86.120,321.698 85.288,321.928 84.826 C 322.159 84.363,322.680 83.380,323.087 82.640 C 323.495 81.900,324.070 80.822,324.367 80.245 C 325.135 78.748,325.447 78.725,327.039 80.048 C 333.521 85.432,343.388 84.706,343.360 78.848 C 343.346 75.975,342.066 74.922,335.898 72.708 C 334.210 72.102,332.413 71.454,331.904 71.269 C 327.706 69.740,324.545 67.273,323.187 64.466 C 322.878 63.827,322.558 63.175,322.476 63.017 C 322.198 62.483,321.648 58.964,321.648 57.725 C 321.648 54.471,322.349 51.799,324.058 48.538 C 325.369 46.037,329.546 42.610,332.072 41.963 C 332.303 41.904,333.211 41.662,334.090 41.425 C 336.964 40.652,340.788 40.573,344.430 41.213 M77.600 41.845 C 76.627 42.053,76.676 40.679,76.673 68.035 C 76.671 92.641,76.679 93.289,76.992 93.676 L 77.314 94.073 91.678 94.118 C 106.025 94.163,106.043 94.162,106.489 93.811 L 106.936 93.460 106.936 88.034 C 106.936 82.732,106.928 82.600,106.582 82.288 C 106.248 81.985,105.800 81.962,98.637 81.883 L 91.047 81.799 90.960 61.959 C 90.913 51.047,90.856 42.107,90.834 42.093 C 90.253 41.717,79.166 41.510,77.600 41.845 M90.194 42.299 C 90.431 42.536,90.458 44.563,90.458 62.102 C 90.458 79.513,90.487 81.681,90.720 82.014 L 90.982 82.388 98.518 82.388 C 105.319 82.388,106.076 82.415,106.285 82.665 C 106.675 83.135,106.717 92.908,106.330 93.335 C 105.887 93.825,77.895 93.833,77.452 93.344 C 76.981 92.823,77.112 42.619,77.586 42.273 C 78.099 41.898,89.817 41.922,90.194 42.299 M141.182 54.057 C 138.545 54.725,136.007 56.076,134.389 57.671 C 124.822 67.105,132.144 83.082,145.607 82.152 C 157.677 81.319,163.436 66.694,155.084 58.085 C 151.600 54.494,145.934 52.852,141.182 54.057 M275.494 54.115 C 261.248 57.855,260.950 77.400,275.074 81.647 C 281.866 83.689,290.662 79.473,292.539 73.275 C 292.632 72.969,292.817 72.417,292.950 72.047 C 293.735 69.870,293.653 66.000,292.764 63.304 C 290.465 56.330,282.731 52.216,275.494 54.115 M148.382 54.651 C 149.567 54.964,152.072 56.110,152.594 56.578 C 152.697 56.671,153.002 56.898,153.272 57.083 C 154.817 58.143,157.713 61.976,157.713 62.960 C 157.713 63.096,157.874 63.607,158.070 64.096 C 158.598 65.409,158.597 70.182,158.069 71.775 C 157.873 72.365,157.713 72.911,157.713 72.989 C 157.713 73.066,157.328 73.805,156.858 74.631 C 153.727 80.127,147.201 82.868,140.996 81.293 C 140.082 81.062,139.251 80.806,139.150 80.726 C 139.049 80.645,138.777 80.521,138.546 80.450 C 134.846 79.316,131.147 74.240,130.614 69.567 C 129.488 59.690,138.576 52.060,148.382 54.651 M283.092 54.712 C 285.756 55.512,288.007 56.918,289.749 58.872 C 290.838 60.093,290.796 60.035,291.419 61.190 C 291.723 61.752,292.065 62.383,292.179 62.590 C 292.293 62.798,292.388 63.142,292.389 63.354 C 292.391 63.567,292.523 63.983,292.682 64.279 C 293.092 65.038,293.108 70.766,292.703 71.543 C 292.558 71.820,292.398 72.312,292.348 72.636 C 292.170 73.788,290.949 75.684,289.281 77.401 C 285.994 80.784,280.482 82.566,276.503 81.532 C 276.133 81.436,275.490 81.277,275.074 81.180 C 268.876 79.722,264.292 72.876,265.131 66.330 C 266.233 57.732,274.765 52.214,283.092 54.712 M5.551 162.968 C 5.553 163.274,5.585 163.298,5.717 163.094 C 5.927 162.768,5.927 162.589,5.717 162.589 C 5.624 162.589,5.550 162.760,5.551 162.968 " stroke="none" fill="#979797" fill-rule="evenodd"></path><path id="path4" d="M52.325 21.219 C 52.031 21.513,52.031 115.519,52.325 115.813 C 52.481 115.970,86.746 116.015,205.506 116.015 C 346.958 116.015,358.527 116.036,359.025 116.291 C 359.321 116.443,360.055 116.993,360.656 117.515 C 361.257 118.036,362.301 118.915,362.977 119.467 C 364.388 120.620,365.528 121.555,366.372 122.252 C 366.696 122.519,367.415 123.098,367.970 123.539 C 368.525 123.980,369.206 124.538,369.483 124.780 C 369.760 125.022,370.933 126.000,372.089 126.955 C 373.245 127.909,374.543 128.997,374.973 129.372 C 375.901 130.181,375.742 130.051,378.533 132.286 C 379.752 133.261,380.786 134.111,380.832 134.175 C 381.072 134.504,383.678 136.485,383.761 136.401 C 383.892 136.271,383.887 21.623,383.757 21.283 C 383.622 20.932,52.676 20.868,52.325 21.219 M149.927 40.717 C 150.279 40.807,151.117 40.986,151.789 41.113 C 152.461 41.241,153.092 41.395,153.190 41.456 C 153.288 41.517,153.760 41.666,154.238 41.787 C 155.464 42.097,156.575 42.524,156.886 42.804 C 157.032 42.936,157.272 43.043,157.420 43.043 C 157.568 43.043,157.793 43.147,157.919 43.273 C 158.046 43.400,158.335 43.560,158.562 43.630 C 158.789 43.700,159.052 43.818,159.146 43.893 C 159.241 43.969,159.755 44.260,160.289 44.541 C 161.146 44.991,162.253 45.782,163.128 46.569 C 163.286 46.710,163.664 47.016,163.969 47.247 C 165.517 48.421,168.813 52.281,169.426 53.636 C 169.489 53.775,169.916 54.560,170.375 55.382 C 174.401 62.577,174.389 73.343,170.347 80.513 C 169.872 81.356,169.483 82.081,169.483 82.124 C 169.483 82.311,168.296 83.944,167.030 85.498 C 165.736 87.086,164.882 87.945,163.576 88.968 C 163.264 89.212,162.652 89.707,162.214 90.068 C 160.177 91.749,154.947 94.032,151.077 94.929 C 145.646 96.188,135.529 95.211,132.129 93.099 C 131.913 92.965,130.838 92.388,129.740 91.817 C 128.643 91.246,127.388 90.499,126.951 90.156 C 124.717 88.402,123.943 87.729,123.329 87.004 C 122.959 86.568,122.483 86.012,122.271 85.770 C 120.373 83.603,119.763 82.601,117.547 78.016 C 117.372 77.652,116.591 75.092,116.266 73.813 C 115.637 71.337,115.641 64.540,116.272 62.016 C 116.993 59.134,117.265 58.380,118.450 55.990 C 119.964 52.937,120.337 52.347,121.905 50.524 C 122.232 50.144,122.610 49.704,122.746 49.545 C 123.927 48.163,126.902 45.602,128.289 44.771 C 129.366 44.126,131.497 43.043,131.689 43.043 C 131.793 43.043,131.997 42.936,132.143 42.804 C 132.452 42.525,133.562 42.098,134.774 41.791 C 135.243 41.672,135.772 41.498,135.951 41.405 C 136.130 41.312,136.730 41.181,137.285 41.114 C 137.839 41.047,138.445 40.911,138.630 40.812 C 139.429 40.383,148.339 40.309,149.927 40.717 M217.654 40.778 C 218.024 40.896,218.781 41.046,219.336 41.111 C 219.890 41.175,220.534 41.324,220.765 41.441 C 220.996 41.558,221.450 41.701,221.774 41.760 C 222.490 41.891,224.251 42.595,224.511 42.855 C 224.615 42.958,224.794 43.043,224.909 43.043 C 225.263 43.043,227.280 44.187,227.797 44.680 C 227.919 44.797,228.075 44.893,228.143 44.893 C 228.212 44.893,228.415 45.030,228.596 45.198 C 228.776 45.366,229.053 45.576,229.211 45.665 C 230.206 46.221,234.266 50.810,234.777 51.955 C 234.839 52.093,235.151 52.661,235.470 53.216 C 236.404 54.841,236.303 55.249,234.799 55.915 C 233.860 56.330,233.554 56.464,232.156 57.066 C 231.856 57.196,231.383 57.379,231.106 57.473 C 230.408 57.709,226.743 59.223,225.566 59.762 C 223.488 60.712,222.827 60.481,222.092 58.548 C 220.143 53.423,211.078 51.019,206.171 54.326 C 205.773 54.594,205.382 54.813,205.302 54.813 C 205.000 54.813,202.629 57.291,202.004 58.260 C 198.582 63.559,198.582 73.065,202.005 78.077 C 203.752 80.633,206.166 82.110,209.920 82.917 C 213.330 83.650,218.413 82.412,220.429 80.357 C 221.565 79.199,222.615 77.187,222.615 76.168 L 222.615 75.676 217.555 75.627 L 212.496 75.578 212.175 75.181 C 211.876 74.811,211.854 74.459,211.854 70.003 L 211.854 65.222 212.266 64.810 L 212.679 64.397 225.423 64.399 C 235.256 64.401,238.262 64.450,238.581 64.611 C 239.165 64.906,239.229 65.446,239.081 68.792 C 238.961 71.490,238.864 72.427,238.411 75.278 C 238.198 76.619,237.396 79.072,236.649 80.666 C 236.328 81.352,236.066 81.953,236.066 82.002 C 236.066 83.174,231.593 88.307,228.583 90.588 C 226.966 91.815,223.255 93.549,220.597 94.320 C 217.095 95.337,216.568 95.403,212.022 95.399 C 207.005 95.394,207.455 95.467,201.093 93.623 C 200.769 93.529,200.277 93.317,200.000 93.153 C 199.723 92.988,198.672 92.425,197.665 91.901 C 196.658 91.377,195.561 90.717,195.227 90.433 C 194.893 90.149,194.103 89.490,193.471 88.969 C 192.308 88.008,188.651 83.632,188.651 83.201 C 188.651 83.072,188.547 82.818,188.420 82.635 C 187.639 81.513,186.208 78.313,186.043 77.321 C 185.976 76.917,185.852 76.455,185.767 76.293 C 185.682 76.132,185.533 75.564,185.435 75.032 C 185.337 74.500,185.180 73.971,185.086 73.857 C 184.581 73.244,184.639 63.315,185.157 61.623 C 185.471 60.600,185.737 59.589,186.036 58.286 C 186.160 57.745,186.345 57.219,186.447 57.117 C 186.550 57.015,186.633 56.813,186.633 56.668 C 186.633 56.524,186.795 56.104,186.992 55.736 C 187.874 54.091,188.650 52.532,188.650 52.406 C 188.652 51.925,191.936 48.164,193.449 46.910 C 193.728 46.679,194.383 46.131,194.903 45.691 C 195.424 45.252,195.926 44.893,196.020 44.893 C 196.113 44.893,196.214 44.831,196.245 44.756 C 196.276 44.681,197.133 44.211,198.150 43.711 C 199.168 43.211,200.039 42.748,200.087 42.682 C 200.202 42.522,201.620 42.038,202.774 41.764 C 204.255 41.413,205.671 41.038,206.305 40.830 C 207.718 40.365,216.236 40.326,217.654 40.778 M284.423 40.716 C 284.783 40.810,285.612 40.980,286.265 41.094 C 286.918 41.209,287.548 41.362,287.666 41.435 C 287.783 41.507,288.270 41.666,288.748 41.787 C 289.975 42.097,291.085 42.524,291.396 42.804 C 291.542 42.936,291.771 43.043,291.905 43.043 C 292.039 43.043,292.298 43.146,292.480 43.271 C 292.663 43.397,293.469 43.844,294.271 44.265 C 296.133 45.243,299.226 47.689,300.618 49.286 C 301.212 49.968,301.782 50.601,301.883 50.694 C 302.446 51.207,303.414 52.580,303.976 53.662 C 304.329 54.341,304.917 55.464,305.283 56.158 C 308.260 61.793,308.786 70.584,306.517 76.755 C 306.347 77.217,306.123 77.860,306.019 78.184 C 305.915 78.508,305.533 79.302,305.168 79.950 C 304.804 80.597,304.395 81.373,304.258 81.675 C 302.687 85.136,297.829 89.794,293.485 92.005 C 292.282 92.617,291.072 93.238,290.794 93.384 C 290.517 93.531,290.194 93.651,290.078 93.652 C 289.961 93.652,289.734 93.723,289.573 93.808 C 286.408 95.489,277.478 96.027,272.131 94.859 C 268.921 94.157,263.420 91.742,261.534 90.206 C 259.906 88.880,258.311 87.515,258.008 87.188 C 256.791 85.875,254.742 83.169,254.257 82.235 C 253.940 81.625,253.387 80.622,253.028 80.004 C 252.669 79.387,252.375 78.780,252.375 78.655 C 252.375 78.529,252.274 78.278,252.151 78.095 C 251.889 77.706,251.257 75.703,251.092 74.737 C 251.029 74.367,250.859 73.800,250.715 73.476 C 250.323 72.597,250.332 63.253,250.725 62.362 C 250.872 62.029,251.044 61.424,251.108 61.017 C 251.255 60.082,251.860 58.195,252.152 57.760 C 252.275 57.578,252.375 57.328,252.375 57.205 C 252.375 57.082,252.784 56.272,253.284 55.407 C 253.784 54.541,254.249 53.656,254.317 53.440 C 254.478 52.930,256.434 50.371,257.251 49.601 C 257.300 49.554,257.540 49.273,257.784 48.976 C 258.206 48.463,259.502 47.313,261.017 46.111 C 261.396 45.809,261.874 45.420,262.079 45.245 C 262.284 45.071,263.171 44.576,264.050 44.146 C 264.929 43.715,265.693 43.291,265.747 43.203 C 265.801 43.115,265.968 43.043,266.117 43.043 C 266.266 43.043,266.507 42.936,266.653 42.804 C 266.963 42.525,268.073 42.098,269.284 41.791 C 269.753 41.672,270.283 41.497,270.461 41.401 C 270.640 41.306,271.240 41.173,271.795 41.106 C 272.350 41.038,272.955 40.904,273.140 40.808 C 273.958 40.379,282.851 40.307,284.423 40.716 M344.430 40.784 C 344.893 40.915,345.763 41.092,346.364 41.178 C 347.350 41.320,348.136 41.530,349.643 42.056 C 349.920 42.153,350.406 42.296,350.722 42.374 C 351.038 42.452,351.529 42.627,351.814 42.762 C 355.258 44.396,355.443 44.516,355.443 45.111 C 355.443 45.417,353.933 48.646,353.421 49.433 C 353.331 49.571,353.182 49.874,353.090 50.105 C 352.998 50.336,352.850 50.639,352.762 50.778 C 352.675 50.916,352.243 51.786,351.803 52.711 C 350.316 55.839,350.241 55.876,348.169 54.505 C 346.983 53.720,345.625 53.061,344.262 52.609 C 341.888 51.823,337.997 52.576,336.896 54.036 C 335.132 56.375,336.283 58.770,339.807 60.093 C 340.500 60.353,341.379 60.709,341.759 60.884 C 342.139 61.059,342.617 61.202,342.821 61.202 C 343.025 61.202,343.344 61.284,343.530 61.383 C 343.716 61.483,344.222 61.665,344.654 61.788 C 350.891 63.564,356.309 68.233,357.143 72.551 C 357.214 72.921,357.396 73.640,357.546 74.149 C 357.904 75.362,357.816 80.664,357.415 81.967 C 357.273 82.430,357.032 83.243,356.880 83.775 C 356.566 84.870,355.268 87.429,354.641 88.188 C 353.385 89.710,352.306 90.824,351.686 91.240 C 351.302 91.499,350.785 91.873,350.536 92.073 C 350.288 92.273,349.493 92.717,348.771 93.060 C 348.048 93.403,347.268 93.778,347.037 93.892 C 346.632 94.092,345.733 94.360,343.590 94.918 C 341.164 95.549,333.986 95.659,332.087 95.094 C 331.663 94.967,330.483 94.662,329.466 94.416 C 328.449 94.170,327.545 93.897,327.457 93.811 C 327.369 93.724,327.185 93.653,327.048 93.653 C 326.910 93.653,326.490 93.509,326.114 93.333 C 325.738 93.158,324.939 92.804,324.338 92.547 C 323.737 92.290,323.132 91.987,322.993 91.873 C 322.854 91.759,322.135 91.350,321.396 90.963 C 318.804 89.607,318.796 89.768,321.731 84.321 C 322.130 83.581,322.691 82.522,322.979 81.967 C 325.082 77.913,324.967 77.973,327.291 79.696 C 328.179 80.355,329.107 80.984,329.354 81.093 C 329.601 81.202,330.041 81.451,330.334 81.645 C 333.259 83.592,340.191 83.705,341.656 81.830 C 341.795 81.652,342.022 81.381,342.161 81.226 C 344.206 78.951,342.373 75.291,338.630 74.174 C 338.306 74.078,337.549 73.815,336.948 73.591 C 336.347 73.367,335.174 72.939,334.342 72.641 C 333.510 72.342,332.590 71.992,332.299 71.862 C 332.008 71.733,331.682 71.627,331.575 71.627 C 331.310 71.627,328.884 70.519,327.869 69.935 C 326.547 69.174,324.587 67.419,323.859 66.346 C 322.927 64.971,322.825 64.806,322.655 64.397 C 322.558 64.166,322.376 63.749,322.250 63.472 C 322.123 63.195,321.933 62.627,321.826 62.211 C 321.720 61.795,321.562 61.190,321.476 60.866 C 321.261 60.059,321.278 55.053,321.498 54.224 C 321.596 53.855,321.779 53.107,321.903 52.563 C 322.028 52.019,322.210 51.493,322.309 51.394 C 322.408 51.295,322.488 51.105,322.488 50.970 C 322.488 50.755,322.960 49.734,323.782 48.172 C 324.032 47.696,324.938 46.504,325.408 46.032 C 325.525 45.914,325.692 45.692,325.778 45.539 C 325.865 45.385,326.427 44.875,327.028 44.405 C 327.629 43.935,328.204 43.482,328.305 43.399 C 329.213 42.651,332.432 41.271,333.670 41.100 C 334.132 41.036,334.616 40.898,334.746 40.794 C 335.306 40.345,342.848 40.338,344.430 40.784 M90.265 41.883 C 90.556 41.984,90.812 42.079,90.834 42.093 C 90.856 42.107,90.913 51.047,90.960 61.959 L 91.047 81.799 98.637 81.883 C 105.800 81.962,106.248 81.985,106.582 82.288 C 106.928 82.600,106.936 82.732,106.936 88.034 L 106.936 93.460 106.489 93.811 C 106.043 94.162,106.025 94.163,91.678 94.118 L 77.314 94.073 76.992 93.676 C 76.679 93.289,76.671 92.641,76.673 68.035 C 76.676 40.679,76.627 42.053,77.600 41.845 C 78.509 41.650,89.694 41.684,90.265 41.883 M142.167 54.316 C 130.975 56.078,126.618 69.636,134.631 77.764 C 135.753 78.901,137.577 80.153,138.546 80.450 C 138.777 80.521,139.049 80.645,139.150 80.726 C 139.251 80.806,140.082 81.062,140.996 81.293 C 147.201 82.868,153.727 80.127,156.858 74.631 C 157.328 73.805,157.713 73.066,157.713 72.989 C 157.713 72.911,157.873 72.365,158.069 71.775 C 158.597 70.182,158.598 65.409,158.070 64.096 C 157.874 63.607,157.713 63.096,157.713 62.960 C 157.713 61.976,154.817 58.143,153.272 57.083 C 153.002 56.898,152.697 56.671,152.594 56.578 C 150.748 54.923,145.517 53.788,142.167 54.316 M276.808 54.298 C 268.471 55.631,263.321 63.619,265.593 71.694 C 266.890 76.301,270.749 80.163,275.074 81.180 C 275.490 81.277,276.133 81.436,276.503 81.532 C 279.474 82.304,284.785 81.109,287.516 79.055 C 289.623 77.469,292.112 74.163,292.348 72.636 C 292.398 72.312,292.558 71.820,292.703 71.543 C 293.108 70.766,293.092 65.038,292.682 64.279 C 292.523 63.983,292.391 63.567,292.389 63.354 C 292.388 63.142,292.293 62.798,292.179 62.590 C 292.065 62.383,291.723 61.752,291.419 61.190 C 290.796 60.035,290.838 60.093,289.749 58.872 C 286.642 55.387,281.457 53.554,276.808 54.298 " stroke="none" fill="#ffffff" fill-rule="evenodd"></path></g></svg>